<svg width="366" height="141" viewBox="0 0 366 141" fill="none" xmlns="http://www.w3.org/2000/svg">
<path d="M7.49031 88.6008H1L10.8893 59.3992H18.6945L28.5698 88.6008H22.0795L14.9038 66.0722H14.68L7.49031 88.6008ZM7.08466 77.1226H22.4152V81.942H7.08466V77.1226Z" fill="white"/>
<path d="M67.8297 59.3992L73.6067 69.3517H73.8305L79.6354 59.3992H86.4754L77.733 74L86.6712 88.6008H79.7053L73.8305 78.634H73.6067L67.7318 88.6008H60.7939L69.76 74L60.9618 59.3992H67.8297Z" fill="white"/>
<path d="M145.42 74C145.42 77.1844 144.827 79.8935 143.643 82.1274C142.468 84.3612 140.864 86.0675 138.831 87.2462C136.808 88.4154 134.532 89 132.005 89C129.46 89 127.175 88.4106 125.151 87.2319C123.128 86.0532 121.528 84.347 120.354 82.1131C119.179 79.8793 118.591 77.1749 118.591 74C118.591 70.8156 119.179 68.1065 120.354 65.8726C121.528 63.6388 123.128 61.9373 125.151 60.7681C127.175 59.5894 129.46 59 132.005 59C134.532 59 136.808 59.5894 138.831 60.7681C140.864 61.9373 142.468 63.6388 143.643 65.8726C144.827 68.1065 145.42 70.8156 145.42 74ZM139.279 74C139.279 71.9373 138.976 70.1977 138.37 68.7814C137.773 67.365 136.929 66.2909 135.838 65.5589C134.747 64.827 133.469 64.461 132.005 64.461C130.541 64.461 129.264 64.827 128.173 65.5589C127.082 66.2909 126.233 67.365 125.627 68.7814C125.03 70.1977 124.732 71.9373 124.732 74C124.732 76.0627 125.03 77.8023 125.627 79.2186C126.233 80.635 127.082 81.7091 128.173 82.4411C129.264 83.173 130.541 83.539 132.005 83.539C133.469 83.539 134.747 83.173 135.838 82.4411C136.929 81.7091 137.773 80.635 138.37 79.2186C138.976 77.8023 139.279 76.0627 139.279 74Z" fill="white"/>
<path d="M204 59.3992V88.6008H198.769L186.306 70.2215H186.096V88.6008H180.039V59.3992H185.354L197.72 77.7643H197.971V59.3992H204Z" fill="white"/>
<path d="M3 37.7847C3 37.18 3.05286 36.47 3.15857 35.6549C3.26429 34.8398 3.4625 33.9195 3.75321 32.894C4.04393 31.8422 4.48 30.6721 5.06143 29.3837L9.9375 31.0797C9.64679 31.8948 9.39572 32.6442 9.18429 33.3279C8.97286 33.9852 8.81429 34.6031 8.70857 35.1816C8.60286 35.7338 8.55 36.2859 8.55 36.8381C8.55 38.1265 8.84072 39.1783 9.42215 39.9934C10.03 40.8348 10.8757 41.4528 11.9593 41.8472C13.0429 42.2679 14.2982 42.4782 15.7254 42.4782C17.3639 42.4782 18.7118 42.2547 19.7689 41.8077C20.8261 41.387 21.6454 40.8217 22.2268 40.1118C22.8082 39.4281 23.2179 38.6787 23.4557 37.8636C23.6936 37.0222 23.8125 36.2071 23.8125 35.4182C23.8125 34.3402 23.6275 33.0649 23.2575 31.5924C22.8875 30.0937 22.2268 28.4108 21.2754 26.544L26.3893 24.3747C26.9179 25.295 27.4068 26.373 27.8561 27.6089C28.3054 28.8184 28.6622 30.0805 28.9264 31.3952C29.2172 32.7099 29.3625 33.9589 29.3625 35.1422C29.3625 36.1939 29.2304 37.3114 28.9661 38.4947C28.7018 39.6516 28.2525 40.7954 27.6182 41.926C27.0104 43.0567 26.1779 44.069 25.1207 44.963C24.0636 45.8833 22.7554 46.6196 21.1961 47.1717C19.6368 47.7239 17.7736 48 15.6064 48C13.8621 48 12.2236 47.8028 10.6907 47.4084C9.18429 47.0403 7.84965 46.4486 6.68679 45.6335C5.55036 44.8184 4.65179 43.7535 3.99107 42.4388C3.33036 41.1504 3 39.599 3 37.7847ZM15.9236 22.797C15.1043 22.797 14.4039 22.521 13.8225 21.9688C13.2675 21.4166 12.99 20.7329 12.99 19.9178C12.99 19.1027 13.2675 18.4059 13.8225 17.8274C14.4039 17.249 15.1043 16.9597 15.9236 16.9597C16.7164 16.9597 17.3904 17.249 17.9454 17.8274C18.5268 18.4059 18.8175 19.1027 18.8175 19.9178C18.8175 20.7329 18.5268 21.4166 17.9454 21.9688C17.3904 22.521 16.7164 22.797 15.9236 22.797Z" fill="white"/>
<path d="M34.2073 47.9606L33.0577 42.4388C34.9341 42.2021 36.5727 41.9129 37.9734 41.5711C39.3741 41.2555 40.5502 40.8085 41.5016 40.2301C42.453 39.6516 43.1666 38.8628 43.6423 37.8636C44.118 36.8381 44.3559 35.5234 44.3559 33.9195C44.3559 32.3681 44.118 31.1323 43.6423 30.212C43.1666 29.2917 42.5323 28.8316 41.7395 28.8316C41.1845 28.8316 40.722 29.0288 40.352 29.4232C39.982 29.7913 39.7045 30.2383 39.5195 30.7642C39.3609 31.2638 39.2816 31.7108 39.2816 32.1052C39.2816 32.3418 39.3477 32.5916 39.4798 32.8546C39.6119 33.1175 39.9027 33.341 40.352 33.5251C40.8012 33.7091 41.5016 33.8143 42.453 33.8406C43.4309 33.8669 44.7523 33.7749 46.4173 33.5645H53.0773C54.0816 33.5645 54.7952 33.8274 55.218 34.3533C55.6673 34.8529 55.892 35.484 55.892 36.2465C55.892 37.0616 55.6145 37.7453 55.0595 38.2975C54.5045 38.8233 53.7116 39.0863 52.6809 39.0863H41.7791C40.1141 39.0863 38.687 38.8891 37.4977 38.4947C36.3084 38.1002 35.3966 37.4692 34.7623 36.6015C34.128 35.7075 33.8109 34.5242 33.8109 33.0518C33.8109 31.8685 34.0091 30.6853 34.4055 29.5021C34.8284 28.3188 35.4098 27.2408 36.1498 26.2679C36.8898 25.2687 37.7487 24.4799 38.7266 23.9014C39.7309 23.2966 40.8144 22.9942 41.9773 22.9942C43.563 22.9942 44.9505 23.4807 46.1398 24.4536C47.3291 25.4265 48.2541 26.7149 48.9148 28.3188C49.602 29.9228 49.9455 31.6713 49.9455 33.5645C49.9455 36.5357 49.3112 39.06 48.0427 41.1372C46.7741 43.2145 44.9637 44.8184 42.6116 45.9491C40.2595 47.106 37.458 47.7765 34.2073 47.9606Z" fill="white"/>
<path d="M53.3316 39.0863L53.728 33.5645H65.1452C66.1494 33.5645 66.863 33.8274 67.2859 34.3533C67.7352 34.8529 67.9598 35.484 67.9598 36.2465C67.9598 37.0616 67.6823 37.7453 67.1273 38.2975C66.5723 38.8233 65.7794 39.0863 64.7487 39.0863H53.3316Z" fill="white"/>
<path d="M65.3855 39.0863L65.7819 33.5645H77.1991C78.2034 33.5645 78.9169 33.8274 79.3398 34.3533C79.7891 34.8529 80.0137 35.484 80.0137 36.2465C80.0137 37.0616 79.7362 37.7453 79.1812 38.2975C78.6262 38.8233 77.8334 39.0863 76.8027 39.0863H65.3855Z" fill="white"/>
<path d="M77.4394 39.0863L77.8358 33.5645H89.253C90.2573 33.5645 90.9708 33.8274 91.3937 34.3533C91.843 34.8529 92.0676 35.484 92.0676 36.2465C92.0676 37.0616 91.7901 37.7453 91.2351 38.2975C90.6801 38.8233 89.8873 39.0863 88.8566 39.0863H77.4394Z" fill="white"/>
<path d="M89.4933 39.0863L89.8897 33.5645H101.307C102.311 33.5645 103.025 33.8274 103.448 34.3533C103.897 34.8529 104.122 35.484 104.122 36.2465C104.122 37.0616 103.844 37.7453 103.289 38.2975C102.734 38.8233 101.941 39.0863 100.91 39.0863H89.4933Z" fill="white"/>
<path d="M101.547 39.0863L101.944 33.5645H113.361C114.365 33.5645 115.079 33.8274 115.502 34.3533C115.951 34.8529 116.175 35.484 116.175 36.2465C116.175 37.0616 115.898 37.7453 115.343 38.2975C114.788 38.8233 113.995 39.0863 112.964 39.0863H101.547Z" fill="white"/>
<path d="M113.601 39.0863L113.998 33.5645H125.415C126.419 33.5645 127.133 33.8274 127.555 34.3533C128.005 34.8529 128.229 35.484 128.229 36.2465C128.229 37.0616 127.952 37.7453 127.397 38.2975C126.842 38.8233 126.049 39.0863 125.018 39.0863H113.601Z" fill="white"/>
<path d="M125.655 39.0863L126.051 33.5645H137.469C138.473 33.5645 139.186 33.8274 139.609 34.3533C140.059 34.8529 140.283 35.484 140.283 36.2465C140.283 37.0616 140.006 37.7453 139.451 38.2975C138.896 38.8233 138.103 39.0863 137.072 39.0863H125.655Z" fill="white"/>
<path d="M137.709 39.0863L138.105 33.5645C138.978 33.5645 139.691 33.4988 140.246 33.3673C140.801 33.2095 141.25 32.8809 141.594 32.3813C141.964 31.8554 142.281 31.0797 142.545 30.0542C142.836 29.0025 143.153 27.5826 143.497 25.7946L148.65 26.7412C148.545 27.3196 148.399 28.0427 148.214 28.9104C148.056 29.7781 147.976 30.5275 147.976 31.1586C147.976 31.6582 148.069 32.092 148.254 32.4601C148.465 32.802 148.809 33.0781 149.285 33.2884C149.787 33.4725 150.474 33.5645 151.346 33.5645C152.033 33.5645 152.615 33.4988 153.09 33.3673C153.593 33.2095 154.015 32.8809 154.359 32.3813C154.729 31.8554 155.046 31.0534 155.31 29.9753C155.601 28.871 155.879 27.3854 156.143 25.5185L161.376 26.3468C161.27 26.9515 161.164 27.5957 161.059 28.2794C160.953 28.963 160.86 29.5941 160.781 30.1726C160.702 30.751 160.662 31.2243 160.662 31.5924C160.662 31.9343 160.755 32.2629 160.94 32.5785C161.151 32.8677 161.521 33.1044 162.05 33.2884C162.605 33.4725 163.371 33.5645 164.349 33.5645C165.538 33.5645 166.41 33.3147 166.965 32.8151C167.547 32.2892 167.838 31.5004 167.838 30.4486C167.838 29.8439 167.824 29.1997 167.798 28.516C167.771 27.8061 167.719 27.0173 167.639 26.1495C167.586 25.2555 167.481 24.2432 167.322 23.1126L172.436 22.7182C172.621 24.9795 172.833 26.82 173.07 28.2399C173.308 29.6598 173.625 30.7642 174.022 31.553C174.445 32.3155 175 32.8414 175.687 33.1306C176.4 33.4199 177.325 33.5645 178.462 33.5645C179.466 33.5645 180.18 33.8274 180.603 34.3533C181.052 34.8529 181.276 35.484 181.276 36.2465C181.276 37.0616 180.999 37.7453 180.444 38.2975C179.915 38.8233 179.123 39.0863 178.065 39.0863C177.352 39.0863 176.612 39.0205 175.845 38.8891C175.079 38.7839 174.339 38.5604 173.625 38.2186C172.912 37.8504 172.278 37.3246 171.723 36.6409C171.168 35.9573 170.731 35.0501 170.414 33.9195L171.128 34.1561C170.758 35.4708 170.256 36.4832 169.621 37.1931C168.987 37.903 168.208 38.4026 167.283 38.6919C166.358 38.9548 165.248 39.0863 163.953 39.0863C162.763 39.0863 161.706 38.9285 160.781 38.613C159.856 38.2975 159.116 37.7847 158.561 37.0748C158.033 36.3385 157.755 35.3525 157.729 34.1167H159.076C158.548 35.5891 157.94 36.6804 157.253 37.3903C156.566 38.1002 155.733 38.5604 154.755 38.7707C153.778 38.9811 152.549 39.0863 151.069 39.0863C150.17 39.0863 149.285 38.9942 148.413 38.8102C147.54 38.5998 146.761 38.1397 146.074 37.4297C145.386 36.6935 144.884 35.5366 144.567 33.9589L146.708 33.88C146.153 35.4314 145.426 36.5752 144.528 37.3114C143.655 38.0477 142.651 38.5341 141.515 38.7707C140.378 38.9811 139.11 39.0863 137.709 39.0863Z" fill="white"/>
<path d="M178.682 39.0863L179.078 33.5645H184.747C185.302 33.5645 185.791 33.5382 186.214 33.4856C186.637 33.4067 186.981 33.2884 187.245 33.1306C187.536 32.9729 187.747 32.7757 187.879 32.539C188.011 32.3024 188.077 32.0263 188.077 31.7108C188.077 31.3952 187.906 30.8956 187.562 30.212C187.245 29.5021 186.545 28.6475 185.461 27.6483C184.88 27.1224 184.245 26.5703 183.558 25.9918C182.897 25.387 182.263 24.8217 181.655 24.2958C181.047 23.7436 180.545 23.2572 180.149 22.8365C179.752 22.4158 179.554 22.1134 179.554 21.9293C179.554 21.5349 179.581 21.1011 179.633 20.6278C179.686 20.1545 179.766 19.7206 179.871 19.3262C180.003 18.9318 180.175 18.6426 180.387 18.4585C180.836 18.0378 181.497 17.5514 182.369 16.9992C183.267 16.4207 184.338 15.8028 185.58 15.1454C186.822 14.4618 188.21 13.7518 189.742 13.0156C191.302 12.2531 192.967 11.4905 194.737 10.728L196.997 15.5399C195.543 16.1709 194.169 16.7888 192.874 17.3936C191.579 17.9721 190.363 18.5505 189.227 19.129C188.117 19.6812 187.086 20.2334 186.135 20.7855C185.21 21.3114 184.391 21.8373 183.677 22.3632L184.192 19.4445C186.439 21.1537 188.223 22.6919 189.544 24.0592C190.892 25.4265 191.896 26.6491 192.557 27.7272C193.218 28.779 193.654 29.7256 193.865 30.567C194.077 31.3821 194.182 32.1052 194.182 32.7362C194.182 33.3673 194.024 34.0509 193.707 34.7872C193.416 35.4971 192.874 36.1808 192.081 36.8381C191.315 37.4955 190.231 38.0345 188.831 38.4552C187.43 38.8759 185.633 39.0863 183.439 39.0863H178.682Z" fill="white"/>
<path d="M200.371 38.8891L199.617 12.779H205.167L205.921 38.8891H200.371ZM198.19 10.2547L197.516 7.49384C198.441 7.33607 199.129 7.2046 199.578 7.09942C200.054 6.99425 200.556 6.87592 201.084 6.74445L200.688 7.73049C200.001 7.49384 199.34 7.03369 198.706 6.35004C198.098 5.6401 197.794 4.83813 197.794 3.94413C197.794 2.99754 198.005 2.235 198.428 1.65653C198.851 1.07806 199.393 0.657355 200.054 0.394412C200.714 0.131471 201.401 0 202.115 0C202.511 0 202.881 0.0262941 203.225 0.0788833C203.595 0.131471 203.925 0.210354 204.216 0.315531L203.899 3.1553C203.635 3.10271 203.37 3.05012 203.106 2.99754C202.842 2.94495 202.551 2.91865 202.234 2.91865C201.89 2.91865 201.573 3.03698 201.283 3.27362C201.018 3.48398 200.886 3.74692 200.886 4.06245C200.886 4.50945 201.045 4.90386 201.362 5.24569C201.679 5.58751 202.049 5.8636 202.472 6.07395C202.921 6.25801 203.291 6.36319 203.582 6.38948L201.401 6.62613C202.115 6.44207 202.789 6.25801 203.423 6.07395C204.058 5.8636 204.652 5.65325 205.207 5.44289L206 8.08546C205.339 8.3221 204.56 8.58505 203.661 8.87428C202.789 9.13722 201.877 9.38702 200.926 9.62366C200.001 9.86031 199.089 10.0707 198.19 10.2547Z" fill="white"/>
<path fill-rule="evenodd" clip-rule="evenodd" d="M261.111 53.3056L234.557 51.7283C232.251 58.5393 231 65.8378 231 73.4288C231 81.7395 232.499 89.6998 235.242 97.0534L261.715 95.0525C258.064 88.7576 255.973 81.4435 255.973 73.6405C255.973 66.2786 257.834 59.3518 261.111 53.3056ZM261.607 52.4155L246.661 30.1562C256.531 18.3234 270.369 9.9217 286.129 7L297.921 30.9377C282.376 31.1961 268.854 39.774 261.607 52.4155ZM299.33 30.9371C314.69 31.1796 328.079 39.5453 335.397 51.9304L350.308 30.1191C340.524 18.4057 326.848 10.0608 311.27 7.07523L299.33 30.9371ZM335.911 52.8236C339.352 58.9826 341.314 66.0823 341.314 73.6405C341.314 81.2457 339.328 88.3866 335.846 94.5719L362.095 96.1311C364.623 89.0359 366 81.3933 366 73.4288C366 65.4966 364.634 57.8837 362.125 50.8127L335.911 52.8236ZM335.226 95.6375C327.761 108.048 314.171 116.349 298.643 116.349C298.597 116.349 298.55 116.349 298.503 116.349L310.077 140C325.855 137.271 339.757 129.058 349.753 117.395L335.226 95.6375ZM297.674 116.339C282.342 115.997 269.005 107.56 261.76 95.1306L246.875 116.957C256.687 128.604 270.363 136.885 285.924 139.819L297.674 116.339Z" fill="url(#paint0_linear_879_5179)"/>
<path d="M7.55032 116.797C6.87474 116.797 6.28955 116.712 5.79476 116.543C5.30949 116.365 4.93364 116.083 4.66721 115.697C4.40078 115.303 4.24854 114.777 4.21048 114.119L3.95357 108.439H5.96604L6.20867 113.428C6.2277 113.814 6.28955 114.109 6.39422 114.316C6.5084 114.514 6.67016 114.65 6.8795 114.725C7.08883 114.791 7.36001 114.824 7.69305 114.824C8.05462 114.824 8.31153 114.918 8.46378 115.105C8.61602 115.284 8.69215 115.51 8.69215 115.782C8.69215 116.073 8.59224 116.318 8.39242 116.515C8.20211 116.703 7.92141 116.797 7.55032 116.797ZM4.93839 115.486C4.30087 115.627 3.68714 115.693 3.0972 115.683C2.50726 115.665 1.97917 115.561 1.51292 115.373C1.04668 115.176 0.675582 114.894 0.399641 114.528C0.133215 114.161 0 113.696 0 113.132C0 112.634 0.109426 112.183 0.328276 111.779C0.556641 111.366 0.870645 111.004 1.27028 110.694C1.67944 110.384 2.1552 110.121 2.69756 109.905C3.23993 109.689 3.82987 109.524 4.46739 109.411L4.66721 111.413C4.25806 111.432 3.88697 111.488 3.55393 111.582C3.23042 111.667 2.94972 111.779 2.71184 111.92C2.48347 112.061 2.30744 112.221 2.18374 112.399C2.06004 112.569 1.9982 112.752 1.9982 112.949C1.9982 113.109 2.05529 113.24 2.16947 113.344C2.28365 113.447 2.43589 113.532 2.6262 113.597C2.8165 113.654 3.03535 113.687 3.28275 113.696C3.53015 113.705 3.7823 113.691 4.03921 113.654C4.30563 113.616 4.5673 113.555 4.82421 113.471L4.93839 115.486ZM4.98121 106.987C4.70527 106.987 4.46739 106.893 4.26757 106.705C4.07727 106.508 3.98212 106.278 3.98212 106.015C3.98212 105.742 4.07727 105.507 4.26757 105.31C4.46739 105.113 4.70527 105.014 4.98121 105.014C5.24764 105.014 5.476 105.113 5.66631 105.31C5.85661 105.507 5.95176 105.742 5.95176 106.015C5.95176 106.278 5.85661 106.508 5.66631 106.705C5.476 106.893 5.24764 106.987 4.98121 106.987ZM2.51202 106.973C2.23608 106.973 1.99819 106.879 1.79837 106.691C1.60807 106.494 1.51292 106.264 1.51292 106.001C1.51292 105.728 1.60807 105.493 1.79837 105.296C1.99819 105.099 2.23608 105 2.51202 105C2.77844 105 3.00681 105.099 3.19711 105.296C3.38742 105.493 3.48257 105.728 3.48257 106.001C3.48257 106.264 3.38742 106.494 3.19711 106.691C3.00681 106.879 2.77844 106.973 2.51202 106.973Z" fill="white"/>
<path d="M7.40279 116.797L7.54552 114.824C8.05934 114.824 8.5684 114.795 9.07271 114.739C9.57702 114.683 10.0671 114.598 10.5428 114.485C11.0186 114.373 11.4705 114.227 11.8987 114.048C12.3364 113.87 12.7456 113.654 13.1262 113.4C12.8407 113.231 12.5315 113.085 12.1985 112.963C11.8654 112.841 11.5086 112.752 11.128 112.695C10.7569 112.63 10.362 112.597 9.94335 112.597C9.79111 112.597 9.62935 112.601 9.45808 112.611C9.29632 112.62 9.1298 112.639 8.95853 112.667C8.78726 112.686 8.61598 112.714 8.44471 112.752L8.15925 110.821C8.43519 110.746 8.72541 110.694 9.02989 110.666C9.3439 110.628 9.61983 110.609 9.85771 110.609C10.3715 110.609 10.8425 110.666 11.2707 110.779C11.7084 110.891 12.1081 111.032 12.4696 111.201C12.8407 111.371 13.1833 111.54 13.4973 111.709C13.8208 111.878 14.1253 112.019 14.4107 112.132C14.7057 112.244 14.9912 112.301 15.2671 112.301H15.7952L16.0236 114.175C15.6144 114.194 15.2291 114.274 14.8675 114.415C14.5154 114.546 14.1633 114.716 13.8113 114.922C13.4687 115.12 13.0976 115.326 12.698 115.542C12.3079 115.759 11.8654 115.961 11.3706 116.148C10.8758 116.336 10.3049 116.491 9.6579 116.614C9.01086 116.736 8.25916 116.797 7.40279 116.797Z" fill="white"/>
<path d="M17.0499 119.968L16.636 117.995C17.3115 117.91 17.9015 117.807 18.4058 117.685C18.9101 117.572 19.3335 117.412 19.6761 117.205C20.0186 116.999 20.2755 116.717 20.4468 116.36C20.6181 115.993 20.7037 115.524 20.7037 114.95C20.7037 114.396 20.6181 113.954 20.4468 113.626C20.2755 113.297 20.0472 113.132 19.7617 113.132C19.5619 113.132 19.3954 113.203 19.2622 113.344C19.1289 113.475 19.029 113.635 18.9624 113.823C18.9053 114.001 18.8768 114.161 18.8768 114.302C18.8768 114.387 18.9006 114.476 18.9482 114.57C18.9957 114.664 19.1004 114.744 19.2622 114.809C19.4239 114.875 19.6761 114.913 20.0186 114.922C20.3707 114.932 20.8464 114.899 21.4459 114.824H23.8437C24.2053 114.824 24.4622 114.918 24.6145 115.105C24.7762 115.284 24.8571 115.51 24.8571 115.782C24.8571 116.073 24.7572 116.318 24.5574 116.515C24.3576 116.703 24.0721 116.797 23.701 116.797H19.776C19.1765 116.797 18.6627 116.726 18.2345 116.585C17.8063 116.444 17.4781 116.219 17.2497 115.909C17.0213 115.589 16.9071 115.167 16.9071 114.64C16.9071 114.218 16.9785 113.795 17.1212 113.372C17.2735 112.949 17.4828 112.564 17.7492 112.216C18.0157 111.859 18.3249 111.577 18.677 111.371C19.0386 111.154 19.4287 111.046 19.8473 111.046C20.4183 111.046 20.9178 111.22 21.346 111.568C21.7742 111.916 22.1072 112.376 22.3451 112.949C22.5925 113.522 22.7162 114.147 22.7162 114.824C22.7162 115.885 22.4878 116.787 22.0311 117.53C21.5744 118.272 20.9226 118.845 20.0757 119.249C19.2289 119.663 18.2202 119.902 17.0499 119.968Z" fill="white"/>
<path d="M23.5785 116.797L23.7212 114.824C24.0637 114.824 24.3587 114.791 24.6061 114.725C24.8535 114.659 25.0628 114.528 25.2341 114.33C25.4054 114.124 25.5481 113.823 25.6623 113.428C25.786 113.034 25.8954 112.507 25.9906 111.85L27.8603 112.16C27.8413 112.301 27.8127 112.465 27.7747 112.653C27.7461 112.841 27.7176 113.034 27.689 113.231C27.67 113.419 27.6605 113.597 27.6605 113.767C27.6605 113.936 27.6938 114.086 27.7604 114.218C27.827 114.349 27.9317 114.462 28.0744 114.556C28.2266 114.64 28.4217 114.706 28.6596 114.753C28.907 114.8 29.2067 114.824 29.5588 114.824C29.9203 114.824 30.1773 114.918 30.3295 115.105C30.4817 115.284 30.5579 115.51 30.5579 115.782C30.5579 116.073 30.458 116.318 30.2581 116.515C30.0678 116.703 29.7871 116.797 29.416 116.797C28.9879 116.797 28.5977 116.764 28.2457 116.698C27.9031 116.632 27.6034 116.524 27.3465 116.374C27.0991 116.214 26.8945 116.007 26.7328 115.754C26.5805 115.491 26.4854 115.171 26.4473 114.795H27.1324C26.9611 115.246 26.7423 115.608 26.4758 115.881C26.2189 116.144 25.9287 116.341 25.6052 116.473C25.2817 116.604 24.9439 116.689 24.5918 116.726C24.2493 116.773 23.9115 116.797 23.5785 116.797ZM28.16 110.581C27.8841 110.581 27.6462 110.487 27.4464 110.299C27.2561 110.102 27.1609 109.872 27.1609 109.609C27.1609 109.336 27.2561 109.101 27.4464 108.904C27.6462 108.707 27.8841 108.608 28.16 108.608C28.4265 108.608 28.6548 108.707 28.8451 108.904C29.0354 109.101 29.1306 109.336 29.1306 109.609C29.1306 109.872 29.0354 110.102 28.8451 110.299C28.6548 110.487 28.4265 110.581 28.16 110.581ZM25.6908 110.567C25.4149 110.567 25.177 110.473 24.9772 110.285C24.7869 110.088 24.6917 109.858 24.6917 109.595C24.6917 109.322 24.7869 109.087 24.9772 108.89C25.177 108.693 25.4149 108.594 25.6908 108.594C25.9573 108.594 26.1856 108.693 26.3759 108.89C26.5662 109.087 26.6614 109.322 26.6614 109.595C26.6614 109.858 26.5662 110.088 26.3759 110.285C26.1856 110.473 25.9573 110.567 25.6908 110.567Z" fill="white"/>
<path d="M29.2759 116.797L29.4186 114.838C29.7897 114.847 30.1322 114.842 30.4462 114.824C30.7602 114.805 31.0409 114.777 31.2883 114.739C31.5453 114.701 31.7689 114.659 31.9592 114.612C32.159 114.565 32.3255 114.523 32.4587 114.485C32.7822 114.382 33.0582 114.26 33.2865 114.119C33.5149 113.969 33.6909 113.799 33.8146 113.611C33.9383 113.424 34.0002 113.222 34.0002 113.005C34.0002 112.836 33.9621 112.667 33.886 112.498C33.8194 112.32 33.7195 112.174 33.5863 112.061C33.453 111.948 33.2961 111.892 33.1153 111.892C32.944 111.892 32.787 111.944 32.6443 112.047C32.5015 112.15 32.3873 112.291 32.3017 112.47C32.2161 112.639 32.1733 112.836 32.1733 113.062C32.1733 113.259 32.2208 113.447 32.316 113.626C32.4111 113.795 32.5443 113.959 32.7156 114.119C32.8869 114.279 33.0915 114.429 33.3294 114.57L31.4311 115.289C31.2217 115.091 31.0219 114.88 30.8316 114.654C30.6508 114.429 30.4986 114.175 30.3749 113.893C30.2607 113.602 30.2036 113.278 30.2036 112.921C30.2036 112.489 30.2892 112.094 30.4605 111.737C30.6318 111.38 30.8602 111.075 31.1456 110.821C31.4311 110.558 31.7498 110.356 32.1019 110.215C32.454 110.074 32.806 110.003 33.1581 110.003C33.729 110.003 34.2238 110.135 34.6425 110.398C35.0611 110.661 35.3846 111.004 35.613 111.427C35.8509 111.85 35.9698 112.31 35.9698 112.808C35.9698 113.269 35.8842 113.682 35.7129 114.048C35.5416 114.405 35.3085 114.725 35.0135 115.007C34.7281 115.279 34.4093 115.519 34.0573 115.726C33.7147 115.932 33.3674 116.106 33.0154 116.247C32.8441 116.322 32.63 116.393 32.3731 116.459C32.1162 116.524 31.8259 116.585 31.5024 116.642C31.1789 116.689 30.8316 116.726 30.4605 116.754C30.0894 116.783 29.6945 116.797 29.2759 116.797ZM36.8119 116.797C36.26 116.797 35.7177 116.769 35.1848 116.712C34.652 116.656 34.1572 116.571 33.7004 116.459C33.2532 116.346 32.8631 116.21 32.5301 116.05L33.5149 114.528C33.8004 114.603 34.1334 114.664 34.514 114.711C34.9041 114.748 35.3085 114.777 35.7272 114.795C36.1554 114.814 36.5645 114.824 36.9546 114.824C37.3162 114.824 37.5731 114.918 37.7254 115.105C37.8871 115.284 37.968 115.51 37.968 115.782C37.968 116.073 37.8681 116.318 37.6683 116.515C37.4685 116.703 37.183 116.797 36.8119 116.797ZM33.1724 108.693C32.8774 108.693 32.6252 108.594 32.4159 108.397C32.2161 108.199 32.1162 107.955 32.1162 107.664C32.1162 107.373 32.2161 107.124 32.4159 106.917C32.6252 106.71 32.8774 106.607 33.1724 106.607C33.4578 106.607 33.7004 106.71 33.9003 106.917C34.1096 107.124 34.2143 107.373 34.2143 107.664C34.2143 107.955 34.1096 108.199 33.9003 108.397C33.7004 108.594 33.4578 108.693 33.1724 108.693Z" fill="white"/>
<path d="M36.6877 116.797L36.8304 114.824C37.0683 114.824 37.2491 114.777 37.3728 114.683C37.4965 114.589 37.6202 114.424 37.7439 114.189C37.8676 113.954 38.0389 113.635 38.2577 113.231C38.4956 112.78 38.743 112.404 38.9999 112.103C39.2568 111.793 39.5137 111.549 39.7706 111.371C40.0371 111.183 40.2987 111.051 40.5556 110.976C40.8221 110.891 41.0837 110.849 41.3406 110.849C41.6927 110.849 42.021 110.924 42.3255 111.075C42.6395 111.216 42.9392 111.464 43.2246 111.822C43.5101 112.169 43.7813 112.648 44.0382 113.259C44.219 113.682 44.3998 114.006 44.5806 114.232C44.7613 114.457 44.9469 114.612 45.1372 114.697C45.337 114.781 45.5368 114.824 45.7367 114.824C46.0982 114.824 46.3551 114.918 46.5074 115.105C46.6596 115.284 46.7358 115.51 46.7358 115.782C46.7358 116.073 46.6358 116.318 46.436 116.515C46.2362 116.703 45.9555 116.797 45.5939 116.797C45.1277 116.797 44.7043 116.722 44.3237 116.571C43.943 116.421 43.6433 116.195 43.4245 115.895L43.8384 115.585C43.7527 115.782 43.6243 115.989 43.453 116.205C43.2913 116.421 43.0772 116.604 42.8107 116.754C42.5538 116.905 42.2446 116.98 41.883 116.98C41.6451 116.98 41.3644 116.933 41.0409 116.839C40.7269 116.754 40.3986 116.609 40.0561 116.402C39.723 116.186 39.4138 115.895 39.1283 115.528C38.9476 115.857 38.7477 116.116 38.5289 116.303C38.31 116.482 38.0531 116.609 37.7582 116.684C37.4632 116.759 37.1064 116.797 36.6877 116.797ZM39.9562 113.865C40.0513 114.006 40.1655 114.147 40.2987 114.288C40.4319 114.429 40.5794 114.556 40.7412 114.669C40.9029 114.772 41.0742 114.856 41.255 114.922C41.4453 114.988 41.6308 115.021 41.8116 115.021C42.0019 115.021 42.1589 114.95 42.2826 114.809C42.4063 114.659 42.4111 114.438 42.2969 114.147C42.2493 114.025 42.1827 113.889 42.0971 113.738C42.021 113.579 41.9306 113.428 41.8259 113.287C41.7308 113.146 41.6213 113.029 41.4976 112.935C41.3834 112.841 41.2645 112.794 41.1408 112.794C41.0171 112.794 40.8887 112.832 40.7555 112.907C40.6222 112.982 40.489 113.099 40.3558 113.259C40.2226 113.409 40.0894 113.611 39.9562 113.865Z" fill="white"/>
<path d="M45.4515 116.797L45.5943 114.824C46.032 114.824 46.346 114.781 46.5363 114.697C46.7266 114.603 46.8408 114.434 46.8788 114.189C46.9169 113.936 46.9264 113.569 46.9074 113.09L46.6505 106.409H48.6629L48.9484 113.231C48.9674 113.776 48.9436 114.269 48.877 114.711C48.8199 115.143 48.6724 115.514 48.4346 115.824C48.2062 116.134 47.8494 116.374 47.3641 116.543C46.8883 116.712 46.2508 116.797 45.4515 116.797Z" fill="white"/>
<path d="M50.6879 116.726L50.3881 106.409H52.3863L52.6861 116.726H50.6879Z" fill="white"/>
<path d="M69.3438 116.797C68.6682 116.797 68.083 116.712 67.5882 116.543C67.1029 116.365 66.7271 116.083 66.4607 115.697C66.1942 115.303 66.042 114.777 66.0039 114.119L65.747 108.439H67.7595L68.0021 113.428C68.0212 113.814 68.083 114.109 68.1877 114.316C68.3019 114.514 68.4636 114.65 68.673 114.725C68.8823 114.791 69.1535 114.824 69.4865 114.824C69.8481 114.824 70.105 114.918 70.2572 115.105C70.4095 115.284 70.4856 115.51 70.4856 115.782C70.4856 116.073 70.3857 116.318 70.1859 116.515C69.9956 116.703 69.7149 116.797 69.3438 116.797ZM66.7318 115.486C66.0943 115.627 65.4806 115.693 64.8907 115.683C64.3007 115.665 63.7726 115.561 63.3064 115.373C62.8401 115.176 62.469 114.894 62.1931 114.528C61.9267 114.161 61.7935 113.696 61.7935 113.132C61.7935 112.634 61.9029 112.183 62.1217 111.779C62.3501 111.366 62.6641 111.004 63.0637 110.694C63.4729 110.384 63.9487 110.121 64.491 109.905C65.0334 109.689 65.6233 109.524 66.2608 109.411L66.4607 111.413C66.0515 111.432 65.6804 111.488 65.3474 111.582C65.0239 111.667 64.7432 111.779 64.5053 111.92C64.2769 112.061 64.1009 112.221 63.9772 112.399C63.8535 112.569 63.7917 112.752 63.7917 112.949C63.7917 113.109 63.8487 113.24 63.9629 113.344C64.0771 113.447 64.2294 113.532 64.4197 113.597C64.61 113.654 64.8288 113.687 65.0762 113.696C65.3236 113.705 65.5758 113.691 65.8327 113.654C66.0991 113.616 66.3608 113.555 66.6177 113.471L66.7318 115.486ZM66.7747 106.987C66.4987 106.987 66.2608 106.893 66.061 106.705C65.8707 106.508 65.7756 106.278 65.7756 106.015C65.7756 105.742 65.8707 105.507 66.061 105.31C66.2608 105.113 66.4987 105.014 66.7747 105.014C67.0411 105.014 67.2695 105.113 67.4598 105.31C67.6501 105.507 67.7452 105.742 67.7452 106.015C67.7452 106.278 67.6501 106.508 67.4598 106.705C67.2695 106.893 67.0411 106.987 66.7747 106.987ZM64.3055 106.973C64.0295 106.973 63.7917 106.879 63.5918 106.691C63.4015 106.494 63.3064 106.264 63.3064 106.001C63.3064 105.728 63.4015 105.493 63.5918 105.296C63.7917 105.099 64.0295 105 64.3055 105C64.5719 105 64.8003 105.099 64.9906 105.296C65.1809 105.493 65.276 105.728 65.276 106.001C65.276 106.264 65.1809 106.494 64.9906 106.691C64.8003 106.879 64.5719 106.973 64.3055 106.973Z" fill="white"/>
<path d="M69.1963 116.797L69.339 114.824C69.6815 114.824 69.9765 114.791 70.2239 114.725C70.4713 114.659 70.6806 114.528 70.8519 114.33C71.0232 114.124 71.1659 113.823 71.2801 113.428C71.4038 113.034 71.5132 112.507 71.6084 111.85L73.4781 112.16C73.4591 112.301 73.4305 112.465 73.3925 112.653C73.3639 112.841 73.3354 113.034 73.3068 113.231C73.2878 113.419 73.2783 113.597 73.2783 113.767C73.2783 113.936 73.3116 114.086 73.3782 114.218C73.4448 114.349 73.5495 114.462 73.6922 114.556C73.8444 114.64 74.0395 114.706 74.2774 114.753C74.5248 114.8 74.8245 114.824 75.1766 114.824C75.5381 114.824 75.7951 114.918 75.9473 115.105C76.0995 115.284 76.1757 115.51 76.1757 115.782C76.1757 116.073 76.0757 116.318 75.8759 116.515C75.6856 116.703 75.4049 116.797 75.0338 116.797C74.6057 116.797 74.2155 116.764 73.8635 116.698C73.5209 116.632 73.2212 116.524 72.9643 116.374C72.7169 116.214 72.5123 116.007 72.3505 115.754C72.1983 115.491 72.1031 115.171 72.0651 114.795H72.7502C72.5789 115.246 72.3601 115.608 72.0936 115.881C71.8367 116.144 71.5465 116.341 71.223 116.473C70.8995 116.604 70.5617 116.689 70.2096 116.726C69.8671 116.773 69.5293 116.797 69.1963 116.797ZM73.1784 120.067C72.9024 120.067 72.6645 119.968 72.4647 119.771C72.2744 119.583 72.1793 119.357 72.1793 119.094C72.1793 118.822 72.2744 118.587 72.4647 118.389C72.6645 118.192 72.9024 118.093 73.1784 118.093C73.4448 118.093 73.6731 118.192 73.8635 118.389C74.0538 118.587 74.1489 118.822 74.1489 119.094C74.1489 119.357 74.0538 119.583 73.8635 119.771C73.6731 119.968 73.4448 120.067 73.1784 120.067ZM70.7092 120.067C70.4332 120.067 70.1954 119.968 69.9955 119.771C69.8052 119.583 69.7101 119.357 69.7101 119.094C69.7101 118.822 69.8052 118.587 69.9955 118.389C70.1954 118.192 70.4332 118.093 70.7092 118.093C70.9756 118.093 71.204 118.192 71.3943 118.389C71.5846 118.587 71.6797 118.822 71.6797 119.094C71.6797 119.357 71.5846 119.583 71.3943 119.771C71.204 119.968 70.9756 120.067 70.7092 120.067Z" fill="white"/>
<path d="M74.8937 116.797L75.0364 114.824C75.4551 114.824 75.7833 114.795 76.0212 114.739C76.2686 114.683 76.4446 114.579 76.5493 114.429C76.654 114.269 76.7063 114.044 76.7063 113.752C76.7063 113.489 76.6683 113.175 76.5921 112.808C76.5255 112.442 76.4351 112.061 76.3209 111.667C76.2068 111.272 76.0926 110.91 75.9784 110.581L77.9481 110.046C78.0622 110.365 78.1764 110.736 78.2906 111.159C78.4048 111.582 78.4999 112.019 78.5761 112.47C78.6617 112.911 78.7045 113.339 78.7045 113.752C78.7045 114.269 78.6379 114.706 78.5047 115.063C78.3715 115.411 78.1859 115.702 77.9481 115.937C77.7197 116.163 77.4438 116.341 77.1202 116.473C76.8062 116.595 76.4589 116.679 76.0783 116.726C75.6977 116.773 75.3028 116.797 74.8937 116.797ZM76.6492 120.038C76.3733 120.038 76.1354 119.944 75.9356 119.757C75.7453 119.569 75.6501 119.338 75.6501 119.066C75.6501 118.793 75.7453 118.554 75.9356 118.347C76.1354 118.15 76.3733 118.051 76.6492 118.051C76.9252 118.051 77.1583 118.15 77.3486 118.347C77.5484 118.554 77.6483 118.793 77.6483 119.066C77.6483 119.338 77.5484 119.569 77.3486 119.757C77.1583 119.944 76.9252 120.038 76.6492 120.038Z" fill="white"/>
<path d="M79.5093 119.982L78.7813 118.234C79.2856 118.065 79.7471 117.868 80.1658 117.642C80.594 117.417 80.9651 117.168 81.2791 116.895C81.5931 116.623 81.8357 116.327 82.007 116.007C82.1783 115.679 82.2639 115.326 82.2639 114.95C82.2639 114.556 82.1735 114.124 81.9927 113.654C81.8119 113.184 81.5931 112.705 81.3362 112.216L83.2059 111.328C83.3772 111.62 83.5247 111.934 83.6484 112.273C83.7816 112.601 83.891 112.897 83.9766 113.16C84.0623 113.424 84.1194 113.602 84.1479 113.696C84.2811 114.147 84.4619 114.448 84.6903 114.598C84.9282 114.748 85.3088 114.824 85.8321 114.824C86.1937 114.824 86.4506 114.918 86.6028 115.105C86.7646 115.284 86.8455 115.51 86.8455 115.782C86.8455 116.073 86.7456 116.318 86.5457 116.515C86.3459 116.703 86.0605 116.797 85.6894 116.797C85.2993 116.797 84.9567 116.74 84.6617 116.628C84.3668 116.515 84.1289 116.35 83.9481 116.134C83.7768 115.918 83.6674 115.665 83.6198 115.373L84.1479 115.669C84.0908 116.167 83.9243 116.637 83.6484 117.079C83.3819 117.53 83.0346 117.943 82.6065 118.319C82.1783 118.695 81.6977 119.024 81.1649 119.306C80.632 119.587 80.0802 119.813 79.5093 119.982Z" fill="white"/>
<path d="M85.5066 116.797L85.6493 114.824C86.3154 114.824 86.9149 114.781 87.4477 114.697C87.9806 114.603 88.4468 114.481 88.8465 114.33C89.2556 114.18 89.5934 114.006 89.8598 113.809C90.1358 113.611 90.3403 113.405 90.4736 113.189C90.6163 112.963 90.6876 112.742 90.6876 112.526C90.6876 112.404 90.6543 112.291 90.5877 112.188C90.5306 112.075 90.4307 111.986 90.288 111.92C90.1453 111.845 89.9502 111.807 89.7028 111.807C89.5791 111.807 89.4316 111.822 89.2604 111.85C89.0891 111.878 88.9178 111.92 88.7465 111.977C88.5753 112.024 88.4135 112.089 88.2613 112.174C88.4611 112.324 88.6799 112.517 88.9178 112.752C89.1557 112.977 89.3936 113.217 89.6315 113.471C89.8693 113.715 90.0739 113.954 90.2452 114.189C90.445 114.274 90.6639 114.358 90.9017 114.443C91.1491 114.518 91.4156 114.584 91.701 114.64C91.9865 114.697 92.2862 114.744 92.6002 114.781C92.9142 114.809 93.2377 114.824 93.5708 114.824C93.9323 114.824 94.1892 114.918 94.3415 115.105C94.5032 115.284 94.5841 115.51 94.5841 115.782C94.5841 116.073 94.4842 116.318 94.2844 116.515C94.0846 116.703 93.7991 116.797 93.428 116.797C92.6668 116.797 91.9912 116.74 91.4013 116.628C90.8113 116.505 90.2832 116.332 89.817 116.106C89.3603 115.871 88.9321 115.589 88.5325 115.261C88.4183 115.063 88.2565 114.852 88.0472 114.626C87.8474 114.391 87.6333 114.166 87.4049 113.95C87.1861 113.734 86.9862 113.555 86.8054 113.414C86.7579 113.377 86.7008 113.278 86.6342 113.118C86.5771 112.949 86.5247 112.775 86.4772 112.597C86.4296 112.409 86.4058 112.277 86.4058 112.202C86.4058 111.986 86.5057 111.756 86.7055 111.511C86.9149 111.267 87.1908 111.042 87.5333 110.835C87.8854 110.619 88.2708 110.445 88.6895 110.313C89.1176 110.173 89.5506 110.102 89.9883 110.102C90.5782 110.102 91.0683 110.191 91.4584 110.37C91.858 110.539 92.1577 110.779 92.3576 111.089C92.5574 111.389 92.6573 111.742 92.6573 112.146C92.6573 112.597 92.5574 113.048 92.3576 113.499C92.1577 113.94 91.8628 114.358 91.4726 114.753C91.092 115.148 90.6115 115.5 90.0311 115.81C89.4602 116.111 88.7941 116.35 88.0329 116.529C87.2812 116.708 86.4391 116.797 85.5066 116.797Z" fill="white"/>
<path d="M93.2961 116.797L93.4388 114.824C93.8765 114.824 94.1905 114.781 94.3808 114.697C94.5711 114.603 94.6853 114.434 94.7234 114.189C94.7615 113.936 94.771 113.569 94.7519 113.09L94.495 106.409H96.5075L96.793 113.231C96.812 113.776 96.7882 114.269 96.7216 114.711C96.6645 115.143 96.517 115.514 96.2791 115.824C96.0508 116.134 95.6939 116.374 95.2087 116.543C94.7329 116.712 94.0954 116.797 93.2961 116.797Z" fill="white"/>
<path d="M98.5325 116.726L98.2327 106.409H100.231L100.531 116.726H98.5325Z" fill="white"/>
<path d="M125.29 116.797C124.615 116.797 124.03 116.712 123.535 116.543C123.05 116.365 122.674 116.083 122.407 115.697C122.141 115.303 121.989 114.777 121.951 114.119L121.694 108.439H123.706L123.949 113.428C123.968 113.814 124.03 114.109 124.134 114.316C124.248 114.514 124.41 114.65 124.62 114.725C124.829 114.791 125.1 114.824 125.433 114.824C125.795 114.824 126.052 114.918 126.204 115.105C126.356 115.284 126.432 115.51 126.432 115.782C126.432 116.073 126.332 116.318 126.133 116.515C125.942 116.703 125.661 116.797 125.29 116.797ZM122.678 115.486C122.041 115.627 121.427 115.693 120.837 115.683C120.247 115.665 119.719 115.561 119.253 115.373C118.787 115.176 118.416 114.894 118.14 114.528C117.873 114.161 117.74 113.696 117.74 113.132C117.74 112.634 117.85 112.183 118.068 111.779C118.297 111.366 118.611 111.004 119.01 110.694C119.42 110.384 119.895 110.121 120.438 109.905C120.98 109.689 121.57 109.524 122.207 109.411L122.407 111.413C121.998 111.432 121.627 111.488 121.294 111.582C120.971 111.667 120.69 111.779 120.452 111.92C120.224 112.061 120.048 112.221 119.924 112.399C119.8 112.569 119.738 112.752 119.738 112.949C119.738 113.109 119.795 113.24 119.91 113.344C120.024 113.447 120.176 113.532 120.366 113.597C120.557 113.654 120.775 113.687 121.023 113.696C121.27 113.705 121.522 113.691 121.779 113.654C122.046 113.616 122.307 113.555 122.564 113.471L122.678 115.486ZM122.721 106.987C122.445 106.987 122.207 106.893 122.008 106.705C121.817 106.508 121.722 106.278 121.722 106.015C121.722 105.742 121.817 105.507 122.008 105.31C122.207 105.113 122.445 105.014 122.721 105.014C122.988 105.014 123.216 105.113 123.406 105.31C123.597 105.507 123.692 105.742 123.692 106.015C123.692 106.278 123.597 106.508 123.406 106.705C123.216 106.893 122.988 106.987 122.721 106.987ZM120.252 106.973C119.976 106.973 119.738 106.879 119.538 106.691C119.348 106.494 119.253 106.264 119.253 106.001C119.253 105.728 119.348 105.493 119.538 105.296C119.738 105.099 119.976 105 120.252 105C120.519 105 120.747 105.099 120.937 105.296C121.128 105.493 121.223 105.728 121.223 106.001C121.223 106.264 121.128 106.494 120.937 106.691C120.747 106.879 120.519 106.973 120.252 106.973Z" fill="white"/>
<path d="M125.086 116.797L125.229 114.824C125.895 114.824 126.494 114.781 127.027 114.697C127.56 114.603 128.026 114.481 128.426 114.33C128.835 114.18 129.173 114.006 129.439 113.809C129.715 113.611 129.92 113.405 130.053 113.189C130.195 112.963 130.267 112.742 130.267 112.526C130.267 112.404 130.234 112.291 130.167 112.188C130.11 112.075 130.01 111.986 129.867 111.92C129.724 111.845 129.529 111.807 129.282 111.807C129.158 111.807 129.011 111.822 128.84 111.85C128.668 111.878 128.497 111.92 128.326 111.977C128.154 112.024 127.993 112.089 127.84 112.174C128.04 112.324 128.259 112.517 128.497 112.752C128.735 112.977 128.973 113.217 129.211 113.471C129.449 113.715 129.653 113.954 129.824 114.189C130.024 114.274 130.243 114.358 130.481 114.443C130.728 114.518 130.995 114.584 131.28 114.64C131.566 114.697 131.865 114.744 132.179 114.781C132.493 114.809 132.817 114.824 133.15 114.824C133.512 114.824 133.768 114.918 133.921 115.105C134.082 115.284 134.163 115.51 134.163 115.782C134.163 116.073 134.063 116.318 133.864 116.515C133.664 116.703 133.378 116.797 133.007 116.797C132.246 116.797 131.57 116.74 130.98 116.628C130.391 116.505 129.862 116.332 129.396 116.106C128.939 115.871 128.511 115.589 128.112 115.261C127.997 115.063 127.836 114.852 127.626 114.626C127.427 114.391 127.212 114.166 126.984 113.95C126.765 113.734 126.565 113.555 126.385 113.414C126.337 113.377 126.28 113.278 126.213 113.118C126.156 112.949 126.104 112.775 126.056 112.597C126.009 112.409 125.985 112.277 125.985 112.202C125.985 111.986 126.085 111.756 126.285 111.511C126.494 111.267 126.77 111.042 127.113 110.835C127.465 110.619 127.85 110.445 128.269 110.313C128.697 110.173 129.13 110.102 129.567 110.102C130.157 110.102 130.647 110.191 131.038 110.37C131.437 110.539 131.737 110.779 131.937 111.089C132.137 111.389 132.236 111.742 132.236 112.146C132.236 112.597 132.137 113.048 131.937 113.499C131.737 113.94 131.442 114.358 131.052 114.753C130.671 115.148 130.191 115.5 129.61 115.81C129.039 116.111 128.373 116.35 127.612 116.529C126.86 116.708 126.018 116.797 125.086 116.797Z" fill="white"/>
<path d="M132.875 116.797L133.018 114.824C133.237 114.824 133.422 114.772 133.575 114.669C133.736 114.556 133.903 114.373 134.074 114.119C134.245 113.856 134.445 113.503 134.674 113.062C134.959 112.498 135.254 112.056 135.559 111.737C135.873 111.418 136.191 111.192 136.515 111.06C136.848 110.92 137.181 110.849 137.514 110.849C137.933 110.849 138.323 110.938 138.684 111.117C139.046 111.295 139.36 111.54 139.626 111.85C139.893 112.15 140.097 112.498 140.24 112.893C140.392 113.278 140.468 113.677 140.468 114.091C140.468 114.589 140.359 115.04 140.14 115.444C139.931 115.838 139.636 116.153 139.255 116.388C138.884 116.614 138.456 116.726 137.971 116.726C137.562 116.726 137.086 116.656 136.543 116.515C136.001 116.374 135.43 116.078 134.831 115.627L135.559 113.922C135.987 114.213 136.386 114.424 136.757 114.556C137.138 114.687 137.452 114.753 137.699 114.753C137.89 114.753 138.047 114.734 138.17 114.697C138.294 114.659 138.385 114.598 138.442 114.514C138.499 114.429 138.527 114.316 138.527 114.175C138.527 113.978 138.48 113.776 138.385 113.569C138.289 113.363 138.161 113.189 137.999 113.048C137.847 112.897 137.666 112.822 137.457 112.822C137.257 112.822 137.086 112.897 136.943 113.048C136.81 113.189 136.677 113.395 136.543 113.668C136.42 113.931 136.267 114.241 136.087 114.598C135.868 115.03 135.654 115.392 135.444 115.683C135.235 115.965 135.011 116.191 134.774 116.36C134.545 116.52 134.274 116.632 133.96 116.698C133.656 116.764 133.294 116.797 132.875 116.797Z" fill="white"/>
<path d="M145.564 116.797C144.679 116.797 143.994 116.708 143.509 116.529C143.033 116.35 142.7 116.073 142.51 115.697C142.32 115.312 142.21 114.828 142.182 114.246L141.882 106.409H143.88L144.18 113.301C144.199 113.734 144.246 114.058 144.323 114.274C144.399 114.49 144.541 114.636 144.751 114.711C144.97 114.786 145.288 114.824 145.707 114.824C146.069 114.824 146.325 114.918 146.478 115.105C146.639 115.284 146.72 115.51 146.72 115.782C146.72 116.073 146.62 116.318 146.421 116.515C146.221 116.703 145.935 116.797 145.564 116.797Z" fill="white"/>
<path d="M154.775 116.797C154.338 116.797 153.928 116.764 153.548 116.698C153.177 116.632 152.834 116.52 152.52 116.36C152.206 116.191 151.926 115.961 151.678 115.669C151.44 115.378 151.24 115.012 151.079 114.57L152.206 113.682C152.378 113.983 152.587 114.218 152.834 114.387C153.082 114.546 153.377 114.659 153.719 114.725C154.062 114.791 154.461 114.824 154.918 114.824C155.28 114.824 155.537 114.918 155.689 115.105C155.841 115.284 155.917 115.51 155.917 115.782C155.917 116.073 155.817 116.318 155.617 116.515C155.427 116.703 155.146 116.797 154.775 116.797ZM145.441 116.797L145.584 114.824C146.097 114.824 146.607 114.795 147.111 114.739C147.615 114.683 148.105 114.598 148.581 114.485C149.057 114.373 149.509 114.227 149.937 114.048C150.375 113.87 150.784 113.654 151.164 113.4C150.879 113.231 150.57 113.085 150.237 112.963C149.904 112.841 149.547 112.752 149.166 112.695C148.795 112.63 148.4 112.597 147.981 112.597C147.829 112.597 147.667 112.601 147.496 112.611C147.334 112.62 147.168 112.639 146.997 112.667C146.825 112.686 146.654 112.714 146.483 112.752L146.197 110.821C146.473 110.746 146.764 110.694 147.068 110.666C147.382 110.628 147.658 110.609 147.896 110.609C148.41 110.609 148.881 110.666 149.309 110.779C149.747 110.891 150.146 111.032 150.508 111.201C150.879 111.371 151.221 111.54 151.535 111.709C151.859 111.878 152.163 112.019 152.449 112.132C152.744 112.244 153.029 112.301 153.305 112.301H153.833L154.062 114.175C153.653 114.194 153.267 114.274 152.906 114.415C152.554 114.546 152.201 114.716 151.849 114.922C151.507 115.12 151.136 115.326 150.736 115.542C150.346 115.759 149.904 115.961 149.409 116.148C148.914 116.336 148.343 116.491 147.696 116.614C147.049 116.736 146.297 116.797 145.441 116.797ZM149.48 119.968C149.204 119.968 148.966 119.874 148.766 119.686C148.576 119.498 148.481 119.268 148.481 118.995C148.481 118.723 148.576 118.483 148.766 118.277C148.966 118.079 149.204 117.981 149.48 117.981C149.756 117.981 149.989 118.079 150.18 118.277C150.379 118.483 150.479 118.723 150.479 118.995C150.479 119.268 150.379 119.498 150.18 119.686C149.989 119.874 149.756 119.968 149.48 119.968Z" fill="white"/>
<path d="M154.637 116.797L154.78 114.824C155.217 114.824 155.531 114.781 155.722 114.697C155.912 114.603 156.026 114.434 156.064 114.189C156.102 113.936 156.112 113.569 156.093 113.09L155.836 106.409H157.848L158.134 113.231C158.153 113.776 158.129 114.269 158.062 114.711C158.005 115.143 157.858 115.514 157.62 115.824C157.392 116.134 157.035 116.374 156.549 116.543C156.074 116.712 155.436 116.797 154.637 116.797Z" fill="white"/>
<path d="M159.873 116.726L159.573 106.409H161.572L161.871 116.726H159.873Z" fill="white"/>
<path d="M165.563 116.332C165.563 116.116 165.582 115.862 165.62 115.571C165.658 115.279 165.73 114.95 165.834 114.584C165.939 114.208 166.096 113.79 166.305 113.33L168.061 113.936C167.956 114.227 167.866 114.495 167.79 114.739C167.714 114.974 167.656 115.195 167.618 115.401C167.58 115.599 167.561 115.796 167.561 115.993C167.561 116.454 167.666 116.83 167.875 117.121C168.094 117.422 168.399 117.642 168.789 117.783C169.179 117.934 169.631 118.009 170.145 118.009C170.735 118.009 171.22 117.929 171.601 117.769C171.981 117.619 172.276 117.417 172.485 117.163C172.695 116.919 172.842 116.651 172.928 116.36C173.014 116.059 173.056 115.768 173.056 115.486C173.056 115.101 172.99 114.645 172.857 114.119C172.723 113.583 172.485 112.982 172.143 112.315L173.984 111.54C174.174 111.869 174.35 112.254 174.512 112.695C174.674 113.128 174.802 113.579 174.898 114.048C175.002 114.518 175.055 114.965 175.055 115.387C175.055 115.763 175.007 116.163 174.912 116.585C174.817 116.999 174.655 117.408 174.427 117.812C174.208 118.216 173.908 118.577 173.527 118.897C173.147 119.226 172.676 119.489 172.114 119.686C171.553 119.883 170.882 119.982 170.102 119.982C169.474 119.982 168.884 119.912 168.332 119.771C167.79 119.639 167.309 119.428 166.891 119.136C166.481 118.845 166.158 118.465 165.92 117.995C165.682 117.534 165.563 116.98 165.563 116.332ZM170.216 110.976C169.921 110.976 169.669 110.877 169.46 110.68C169.26 110.483 169.16 110.238 169.16 109.947C169.16 109.656 169.26 109.407 169.46 109.2C169.669 108.993 169.921 108.89 170.216 108.89C170.502 108.89 170.744 108.993 170.944 109.2C171.153 109.407 171.258 109.656 171.258 109.947C171.258 110.238 171.153 110.483 170.944 110.68C170.744 110.877 170.502 110.976 170.216 110.976Z" fill="white"/>
<path d="M176.442 119.968L176.028 117.995C176.704 117.91 177.294 117.807 177.798 117.685C178.302 117.572 178.726 117.412 179.068 117.205C179.411 116.999 179.668 116.717 179.839 116.36C180.01 115.993 180.096 115.524 180.096 114.95C180.096 114.396 180.01 113.954 179.839 113.626C179.668 113.297 179.439 113.132 179.154 113.132C178.954 113.132 178.788 113.203 178.654 113.344C178.521 113.475 178.421 113.635 178.355 113.823C178.298 114.001 178.269 114.161 178.269 114.302C178.269 114.387 178.293 114.476 178.34 114.57C178.388 114.664 178.493 114.744 178.654 114.809C178.816 114.875 179.068 114.913 179.411 114.922C179.763 114.932 180.239 114.899 180.838 114.824H183.236C183.597 114.824 183.854 114.918 184.007 115.105C184.168 115.284 184.249 115.51 184.249 115.782C184.249 116.073 184.149 116.318 183.95 116.515C183.75 116.703 183.464 116.797 183.093 116.797H179.168C178.569 116.797 178.055 116.726 177.627 116.585C177.198 116.444 176.87 116.219 176.642 115.909C176.413 115.589 176.299 115.167 176.299 114.64C176.299 114.218 176.371 113.795 176.513 113.372C176.666 112.949 176.875 112.564 177.141 112.216C177.408 111.859 177.717 111.577 178.069 111.371C178.431 111.154 178.821 111.046 179.239 111.046C179.81 111.046 180.31 111.22 180.738 111.568C181.166 111.916 181.499 112.376 181.737 112.949C181.985 113.522 182.108 114.147 182.108 114.824C182.108 115.885 181.88 116.787 181.423 117.53C180.967 118.272 180.315 118.845 179.468 119.249C178.621 119.663 177.612 119.902 176.442 119.968Z" fill="white"/>
<path d="M182.971 116.797L183.113 114.824C183.456 114.824 183.751 114.791 183.998 114.725C184.246 114.659 184.455 114.528 184.626 114.33C184.798 114.124 184.94 113.823 185.054 113.428C185.178 113.034 185.288 112.507 185.383 111.85L187.252 112.16C187.233 112.301 187.205 112.465 187.167 112.653C187.138 112.841 187.11 113.034 187.081 113.231C187.062 113.419 187.053 113.597 187.053 113.767C187.053 113.936 187.086 114.086 187.153 114.218C187.219 114.349 187.324 114.462 187.467 114.556C187.619 114.64 187.814 114.706 188.052 114.753C188.299 114.8 188.599 114.824 188.951 114.824C189.312 114.824 189.569 114.918 189.722 115.105C189.874 115.284 189.95 115.51 189.95 115.782C189.95 116.073 189.85 116.318 189.65 116.515C189.46 116.703 189.179 116.797 188.808 116.797C188.38 116.797 187.99 116.764 187.638 116.698C187.295 116.632 186.996 116.524 186.739 116.374C186.491 116.214 186.287 116.007 186.125 115.754C185.973 115.491 185.878 115.171 185.839 114.795H186.525C186.353 115.246 186.134 115.608 185.868 115.881C185.611 116.144 185.321 116.341 184.997 116.473C184.674 116.604 184.336 116.689 183.984 116.726C183.641 116.773 183.304 116.797 182.971 116.797ZM186.41 108.693C186.172 108.693 185.963 108.603 185.782 108.425C185.611 108.246 185.525 108.035 185.525 107.791C185.525 107.546 185.611 107.34 185.782 107.17C185.963 107.001 186.172 106.917 186.41 106.917C186.658 106.917 186.867 107.001 187.038 107.17C187.21 107.34 187.295 107.546 187.295 107.791C187.295 108.035 187.21 108.246 187.038 108.425C186.867 108.603 186.658 108.693 186.41 108.693ZM185.269 110.553C185.031 110.553 184.821 110.464 184.641 110.285C184.469 110.107 184.384 109.895 184.384 109.651C184.384 109.407 184.469 109.2 184.641 109.031C184.821 108.862 185.031 108.777 185.269 108.777C185.516 108.777 185.725 108.862 185.897 109.031C186.068 109.2 186.153 109.407 186.153 109.651C186.153 109.895 186.068 110.107 185.897 110.285C185.725 110.464 185.516 110.553 185.269 110.553ZM187.481 110.553C187.243 110.553 187.034 110.464 186.853 110.285C186.682 110.107 186.596 109.895 186.596 109.651C186.596 109.407 186.682 109.2 186.853 109.031C187.034 108.862 187.243 108.777 187.481 108.777C187.728 108.777 187.938 108.862 188.109 109.031C188.28 109.2 188.366 109.407 188.366 109.651C188.366 109.895 188.28 110.107 188.109 110.285C187.938 110.464 187.728 110.553 187.481 110.553Z" fill="white"/>
<path d="M188.668 116.797L188.811 114.824H190.852C191.052 114.824 191.228 114.814 191.38 114.795C191.532 114.767 191.656 114.725 191.751 114.669C191.856 114.612 191.932 114.542 191.979 114.457C192.027 114.373 192.051 114.274 192.051 114.161C192.051 114.048 191.989 113.87 191.865 113.626C191.751 113.372 191.499 113.067 191.109 112.709C190.899 112.522 190.671 112.324 190.424 112.118C190.186 111.901 189.957 111.699 189.738 111.511C189.52 111.314 189.339 111.14 189.196 110.99C189.053 110.84 188.982 110.732 188.982 110.666C188.982 110.525 188.992 110.37 189.011 110.201C189.03 110.032 189.058 109.877 189.096 109.736C189.144 109.595 189.206 109.491 189.282 109.426C189.444 109.275 189.681 109.101 189.995 108.904C190.319 108.697 190.704 108.477 191.151 108.242C191.599 107.997 192.098 107.744 192.65 107.481C193.212 107.208 193.811 106.936 194.449 106.663L195.262 108.383C194.739 108.608 194.244 108.829 193.778 109.045C193.311 109.252 192.874 109.458 192.465 109.665C192.065 109.862 191.694 110.06 191.351 110.257C191.018 110.445 190.723 110.633 190.466 110.821L190.652 109.778C191.461 110.389 192.103 110.938 192.579 111.427C193.064 111.916 193.426 112.352 193.664 112.738C193.901 113.114 194.058 113.452 194.135 113.752C194.211 114.044 194.249 114.302 194.249 114.528C194.249 114.753 194.192 114.997 194.077 115.261C193.973 115.514 193.778 115.759 193.492 115.993C193.216 116.228 192.826 116.421 192.322 116.571C191.818 116.722 191.171 116.797 190.381 116.797H188.668Z" fill="white"/>
<path d="M199.531 116.797C198.646 116.797 197.961 116.708 197.476 116.529C197 116.35 196.667 116.073 196.477 115.697C196.286 115.312 196.177 114.828 196.148 114.246L195.849 106.409H197.847L198.147 113.301C198.166 113.734 198.213 114.058 198.289 114.274C198.365 114.49 198.508 114.636 198.718 114.711C198.936 114.786 199.255 114.824 199.674 114.824C200.035 114.824 200.292 114.918 200.445 115.105C200.606 115.284 200.687 115.51 200.687 115.782C200.687 116.073 200.587 116.318 200.387 116.515C200.188 116.703 199.902 116.797 199.531 116.797Z" fill="white"/>
<path d="M205.217 116.839C204.789 116.839 204.346 116.787 203.889 116.684C203.442 116.581 203.009 116.426 202.591 116.219C202.172 116.012 201.796 115.754 201.463 115.444C201.13 115.134 200.864 114.777 200.664 114.373C200.473 113.959 200.378 113.494 200.378 112.977C200.378 112.554 200.469 112.165 200.649 111.807C200.83 111.45 201.097 111.164 201.449 110.948C201.81 110.722 202.248 110.609 202.762 110.609C203.247 110.609 203.666 110.727 204.018 110.962C204.379 111.187 204.66 111.483 204.86 111.85C205.06 112.207 205.16 112.583 205.16 112.977C205.16 113.607 205.003 114.161 204.689 114.64C204.375 115.11 203.942 115.505 203.39 115.824C202.848 116.144 202.234 116.388 201.549 116.557C200.864 116.717 200.15 116.797 199.408 116.797L199.55 114.824C200.093 114.824 200.564 114.809 200.964 114.781C201.373 114.753 201.725 114.692 202.02 114.598C202.315 114.504 202.572 114.363 202.79 114.175C203.009 113.987 203.176 113.781 203.29 113.555C203.414 113.32 203.476 113.09 203.476 112.865C203.476 112.714 203.452 112.573 203.404 112.442C203.366 112.31 203.299 112.202 203.204 112.118C203.119 112.024 203.005 111.977 202.862 111.977C202.71 111.977 202.581 112.024 202.476 112.118C202.381 112.202 202.305 112.315 202.248 112.456C202.2 112.597 202.177 112.747 202.177 112.907C202.177 113.236 202.262 113.532 202.434 113.795C202.614 114.058 202.852 114.279 203.147 114.457C203.442 114.636 203.766 114.772 204.118 114.866C204.479 114.96 204.846 115.007 205.217 115.007C205.512 115.007 205.721 114.96 205.845 114.866C205.969 114.772 206.03 114.645 206.03 114.485C206.03 114.373 206.002 114.255 205.945 114.133C205.897 114.001 205.788 113.842 205.616 113.654C205.445 113.466 205.184 113.236 204.831 112.963C204.479 112.681 204.008 112.334 203.418 111.92C202.828 111.507 202.086 111.004 201.192 110.412L202.291 108.876C203.299 109.581 204.142 110.196 204.817 110.722C205.502 111.248 206.054 111.709 206.473 112.103C206.891 112.498 207.21 112.846 207.429 113.146C207.657 113.438 207.81 113.705 207.886 113.95C207.962 114.194 208 114.438 208 114.683C208 115.134 207.891 115.519 207.672 115.838C207.453 116.158 207.134 116.407 206.715 116.585C206.306 116.754 205.807 116.839 205.217 116.839Z" fill="white"/>
<path d="M0.426183 134.08C0.426183 133.864 0.44521 133.61 0.483271 133.319C0.521332 133.027 0.592695 132.699 0.697362 132.332C0.802029 131.956 0.959034 131.538 1.16837 131.078L2.92392 131.684C2.81926 131.975 2.72886 132.243 2.65274 132.487C2.57662 132.722 2.51952 132.943 2.48146 133.15C2.4434 133.347 2.42438 133.544 2.42438 133.742C2.42438 134.052 2.49098 134.329 2.62419 134.573C2.76692 134.827 2.9715 135.038 3.23793 135.207C3.50435 135.386 3.82787 135.522 4.20848 135.616C4.5986 135.71 5.04582 135.757 5.55012 135.757C6.07346 135.757 6.5397 135.734 6.94885 135.687C7.36752 135.64 7.71959 135.569 8.00504 135.475C8.30001 135.381 8.52362 135.259 8.67586 135.109C8.82811 134.968 8.90423 134.803 8.90423 134.615C8.90423 134.531 8.87093 134.451 8.80432 134.376C8.74723 134.301 8.64732 134.221 8.50459 134.136C8.37138 134.052 8.19059 133.962 7.96222 133.868C7.74337 133.774 7.47695 133.671 7.16295 133.558L7.63395 131.571C8.0431 131.74 8.42847 131.891 8.79005 132.022C9.16114 132.144 9.5132 132.248 9.84624 132.332C10.1793 132.407 10.4933 132.468 10.7882 132.515C11.0832 132.553 11.3592 132.572 11.6161 132.572C11.9776 132.572 12.2346 132.666 12.3868 132.854C12.539 133.032 12.6152 133.258 12.6152 133.53C12.6152 133.821 12.5153 134.066 12.3154 134.263C12.1156 134.451 11.8349 134.545 11.4733 134.545C11.3972 134.545 11.3211 134.545 11.245 134.545C11.1784 134.545 11.107 134.545 11.0309 134.545C10.9643 134.545 10.8929 134.545 10.8168 134.545C10.8358 134.639 10.8453 134.719 10.8453 134.785C10.8453 134.86 10.8453 134.93 10.8453 134.996C10.8453 135.306 10.7359 135.621 10.5171 135.94C10.3077 136.26 9.97945 136.556 9.53223 136.828C9.08502 137.101 8.51411 137.317 7.8195 137.476C7.1344 137.646 6.31609 137.73 5.36457 137.73C4.33693 137.73 3.45202 137.599 2.70983 137.336C1.97716 137.082 1.411 136.683 1.01136 136.138C0.621241 135.602 0.426183 134.916 0.426183 134.08ZM6.76331 141C6.48737 141 6.24949 140.901 6.04967 140.704C5.85937 140.516 5.76421 140.291 5.76421 140.028C5.76421 139.755 5.85937 139.52 6.04967 139.323C6.24949 139.125 6.48737 139.027 6.76331 139.027C7.02974 139.027 7.2581 139.125 7.4484 139.323C7.63871 139.52 7.73386 139.755 7.73386 140.028C7.73386 140.291 7.63871 140.516 7.4484 140.704C7.2581 140.901 7.02974 141 6.76331 141ZM4.29411 141C4.01817 141 3.78029 140.901 3.58047 140.704C3.39017 140.516 3.29501 140.291 3.29501 140.028C3.29501 139.755 3.39017 139.52 3.58047 139.323C3.78029 139.125 4.01817 139.027 4.29411 139.027C4.56054 139.027 4.7889 139.125 4.97921 139.323C5.16951 139.52 5.26466 139.755 5.26466 140.028C5.26466 140.291 5.16951 140.516 4.97921 140.704C4.7889 140.901 4.56054 141 4.29411 141Z" fill="white"/>
<path d="M11.3278 134.545L11.4705 132.572C11.9178 132.572 12.2603 132.567 12.4982 132.558C12.7456 132.548 12.9311 132.539 13.0548 132.529C13.1785 132.511 13.2832 132.497 13.3688 132.487C13.2737 132.393 13.15 132.257 12.9977 132.078C12.8455 131.9 12.7075 131.67 12.5838 131.388C12.4696 131.106 12.4126 130.768 12.4126 130.373C12.4126 129.8 12.56 129.297 12.855 128.865C13.1595 128.433 13.5686 128.094 14.0825 127.85C14.5963 127.606 15.172 127.484 15.8095 127.484C16.114 127.484 16.3947 127.503 16.6516 127.54C16.918 127.578 17.1844 127.634 17.4509 127.709L17.1369 129.584C16.9465 129.537 16.7467 129.499 16.5374 129.471C16.3281 129.443 16.1425 129.429 15.9808 129.429C15.6668 129.429 15.3908 129.48 15.1529 129.584C14.9246 129.678 14.7438 129.814 14.6106 129.993C14.4869 130.162 14.425 130.368 14.425 130.613C14.425 130.772 14.4536 130.923 14.5107 131.064C14.5773 131.205 14.6581 131.331 14.7533 131.444C14.8484 131.557 14.9531 131.656 15.0673 131.74C15.1815 131.825 15.2909 131.895 15.3956 131.952C15.5098 131.999 15.6049 132.031 15.681 132.05C15.9189 131.984 16.1235 131.928 16.2948 131.881C16.4755 131.825 16.6468 131.773 16.8086 131.726C16.9799 131.67 17.1654 131.599 17.3652 131.515C17.565 131.43 17.8124 131.327 18.1074 131.205L18.7497 133.065C17.9504 133.45 17.1702 133.751 16.4089 133.967C15.6477 134.183 14.858 134.333 14.0396 134.418C13.2213 134.503 12.3174 134.545 11.3278 134.545Z" fill="white"/>
<path d="M23.6544 134.545C22.7695 134.545 22.0844 134.456 21.5991 134.277C21.1234 134.099 20.7903 133.821 20.6 133.446C20.4097 133.06 20.3003 132.576 20.2717 131.994L19.972 124.158H21.9702L22.2699 131.05C22.289 131.482 22.3365 131.806 22.4127 132.022C22.4888 132.238 22.6315 132.384 22.8408 132.459C23.0597 132.534 23.3785 132.572 23.7971 132.572C24.1587 132.572 24.4156 132.666 24.5679 132.854C24.7296 133.032 24.8105 133.258 24.8105 133.53C24.8105 133.821 24.7106 134.066 24.5108 134.263C24.3109 134.451 24.0255 134.545 23.6544 134.545Z" fill="white"/>
<path d="M23.5311 134.545L23.6738 132.572H27.7844C28.1459 132.572 28.4029 132.666 28.5551 132.854C28.7169 133.032 28.7977 133.258 28.7977 133.53C28.7977 133.821 28.6978 134.066 28.498 134.263C28.2982 134.451 28.0127 134.545 27.6416 134.545H23.5311Z" fill="white"/>
<path d="M27.5141 134.545L27.6568 132.572H31.7674C32.129 132.572 32.3859 132.666 32.5381 132.854C32.6999 133.032 32.7807 133.258 32.7807 133.53C32.7807 133.821 32.6808 134.066 32.481 134.263C32.2812 134.451 31.9957 134.545 31.6246 134.545H27.5141Z" fill="white"/>
<path d="M31.4971 134.545L31.6398 132.572H35.7504C36.1119 132.572 36.3689 132.666 36.5211 132.854C36.6829 133.032 36.7637 133.258 36.7637 133.53C36.7637 133.821 36.6638 134.066 36.464 134.263C36.2642 134.451 35.9787 134.545 35.6076 134.545H31.4971Z" fill="white"/>
<path d="M35.4801 134.545L35.6228 132.572H39.7334C40.095 132.572 40.3519 132.666 40.5041 132.854C40.6659 133.032 40.7468 133.258 40.7468 133.53C40.7468 133.821 40.6468 134.066 40.447 134.263C40.2472 134.451 39.9618 134.545 39.5907 134.545H35.4801Z" fill="white"/>
<path d="M39.4631 134.545L39.6058 132.572H43.7164C44.078 132.572 44.3349 132.666 44.4871 132.854C44.6489 133.032 44.7298 133.258 44.7298 133.53C44.7298 133.821 44.6298 134.066 44.43 134.263C44.2302 134.451 43.9448 134.545 43.5737 134.545H39.4631Z" fill="white"/>
<path d="M43.4461 134.545L43.5888 132.572H47.6994C48.061 132.572 48.3179 132.666 48.4701 132.854C48.6319 133.032 48.7128 133.258 48.7128 133.53C48.7128 133.821 48.6129 134.066 48.413 134.263C48.2132 134.451 47.9278 134.545 47.5567 134.545H43.4461Z" fill="white"/>
<path d="M47.4291 134.545L47.5718 132.572H51.6824C52.044 132.572 52.3009 132.666 52.4531 132.854C52.6149 133.032 52.6958 133.258 52.6958 133.53C52.6958 133.821 52.5959 134.066 52.396 134.263C52.1962 134.451 51.9108 134.545 51.5397 134.545H47.4291Z" fill="white"/>
<path d="M51.4121 134.545L51.5548 132.572H55.6654C56.027 132.572 56.2839 132.666 56.4361 132.854C56.5979 133.032 56.6788 133.258 56.6788 133.53C56.6788 133.821 56.5789 134.066 56.3791 134.263C56.1792 134.451 55.8938 134.545 55.5227 134.545H51.4121Z" fill="white"/>
<path d="M55.3951 134.545L55.5378 132.572H59.6484C60.01 132.572 60.2669 132.666 60.4191 132.854C60.5809 133.032 60.6618 133.258 60.6618 133.53C60.6618 133.821 60.5619 134.066 60.3621 134.263C60.1622 134.451 59.8768 134.545 59.5057 134.545H55.3951Z" fill="white"/>
<path d="M59.3781 134.545L59.5209 132.572C59.8824 132.572 60.1679 132.539 60.3772 132.473C60.5961 132.407 60.7673 132.276 60.891 132.078C61.0243 131.872 61.1337 131.571 61.2193 131.176C61.3145 130.782 61.4096 130.256 61.5048 129.598L63.3745 129.908C63.3555 130.049 63.3269 130.213 63.2889 130.401C63.2603 130.589 63.2318 130.782 63.2032 130.979C63.1842 131.167 63.1747 131.346 63.1747 131.515C63.1747 131.74 63.2223 131.933 63.3174 132.093C63.4221 132.243 63.6029 132.36 63.8598 132.445C64.1262 132.529 64.5068 132.572 65.0016 132.572C65.3632 132.572 65.6201 132.666 65.7723 132.854C65.9246 133.032 66.0007 133.258 66.0007 133.53C66.0007 133.821 65.9008 134.066 65.701 134.263C65.5107 134.451 65.23 134.545 64.8589 134.545C64.2023 134.545 63.6695 134.484 63.2603 134.362C62.8512 134.24 62.5467 134.033 62.3469 133.742C62.1471 133.45 62.0186 133.051 61.9615 132.544H62.6466C62.4753 132.995 62.2755 133.356 62.0471 133.629C61.8188 133.892 61.5619 134.089 61.2764 134.221C60.991 134.352 60.6865 134.437 60.363 134.474C60.049 134.521 59.7207 134.545 59.3781 134.545ZM62.2898 128.16C61.9948 128.16 61.7427 128.062 61.5333 127.864C61.3335 127.667 61.2336 127.423 61.2336 127.131C61.2336 126.84 61.3335 126.591 61.5333 126.384C61.7427 126.178 61.9948 126.074 62.2898 126.074C62.5752 126.074 62.8179 126.178 63.0177 126.384C63.227 126.591 63.3317 126.84 63.3317 127.131C63.3317 127.423 63.227 127.667 63.0177 127.864C62.8179 128.062 62.5752 128.16 62.2898 128.16Z" fill="white"/>
<path d="M75.5748 134.545C75.0895 134.545 74.6232 134.503 74.176 134.418C73.7288 134.324 73.3244 134.202 72.9628 134.052C72.6108 133.901 72.3206 133.732 72.0922 133.544L73.3767 132.177C73.7193 132.318 74.0714 132.421 74.4329 132.487C74.7945 132.544 75.2227 132.572 75.7175 132.572C76.0791 132.572 76.336 132.666 76.4882 132.854C76.65 133.032 76.7309 133.258 76.7309 133.53C76.7309 133.821 76.631 134.066 76.4311 134.263C76.2313 134.451 75.9458 134.545 75.5748 134.545ZM64.7132 134.545L64.8559 132.572H68.053C68.9474 132.572 69.6896 132.539 70.2795 132.473C70.879 132.407 71.3548 132.313 71.7068 132.191C72.0589 132.06 72.3063 131.909 72.449 131.74C72.6012 131.571 72.6774 131.388 72.6774 131.191C72.6774 131.012 72.6346 130.843 72.5489 130.683C72.4633 130.514 72.3348 130.378 72.1635 130.274C71.9923 130.171 71.7687 130.119 71.4927 130.119C71.1407 130.119 70.7886 130.204 70.4365 130.373C70.0845 130.533 69.7419 130.754 69.4089 131.035C69.0759 131.308 68.7571 131.613 68.4526 131.952C68.1577 132.29 67.8865 132.633 67.6391 132.98L65.4839 132.684C65.8835 132.074 66.3165 131.496 66.7827 130.951C67.2585 130.397 67.758 129.913 68.2813 129.499C68.8142 129.076 69.3613 128.748 69.9227 128.513C70.4936 128.268 71.0741 128.146 71.664 128.146C72.292 128.146 72.8296 128.273 73.2768 128.527C73.7241 128.78 74.0666 129.128 74.3045 129.57C74.5519 130.011 74.6756 130.523 74.6756 131.106C74.6756 131.717 74.4995 132.266 74.1475 132.755C73.8049 133.244 73.2197 133.648 72.3919 133.967C72.0399 134.099 71.6592 134.207 71.2501 134.291C70.8409 134.376 70.3604 134.437 69.8085 134.474C69.2567 134.521 68.5954 134.545 67.8246 134.545H64.7132ZM66.1975 133.107L65.8978 124.158H67.896L68.1529 130.923L66.1975 133.107Z" fill="white"/>
<path d="M82.8356 134.728C81.9507 134.728 81.2133 134.691 80.6233 134.615C80.0429 134.54 79.5719 134.432 79.2103 134.291C78.8487 134.15 78.5633 133.981 78.3539 133.784C78.1446 133.587 77.9733 133.37 77.8401 133.135L78.2398 133.023C78.0019 133.474 77.7307 133.807 77.4262 134.023C77.1217 134.24 76.803 134.38 76.4699 134.446C76.1369 134.512 75.7943 134.545 75.4423 134.545L75.585 132.572C75.88 132.572 76.1131 132.525 76.2844 132.431C76.4557 132.337 76.5936 132.182 76.6983 131.966C76.8125 131.75 76.9171 131.463 77.0123 131.106C77.1075 130.749 77.2216 130.312 77.3548 129.795L79.1675 130.232C79.1009 130.486 79.0438 130.707 78.9962 130.895C78.9582 131.082 78.9249 131.247 78.8963 131.388C78.8773 131.519 78.8678 131.627 78.8678 131.712C78.8678 131.891 78.9106 132.05 78.9962 132.191C79.0818 132.323 79.2484 132.431 79.4958 132.515C79.7432 132.591 80.1047 132.652 80.5805 132.699C81.0658 132.736 81.6985 132.755 82.4788 132.755C83.3066 132.755 83.9965 132.727 84.5483 132.67C85.1002 132.605 85.5379 132.515 85.8614 132.403C86.1945 132.28 86.4324 132.135 86.5751 131.966C86.7178 131.787 86.7892 131.585 86.7892 131.36C86.7892 131.181 86.7463 131.017 86.6607 130.866C86.5846 130.707 86.4561 130.575 86.2753 130.472C86.0946 130.368 85.8614 130.317 85.576 130.317C85.2334 130.317 84.8861 130.401 84.5341 130.57C84.1915 130.73 83.8537 130.946 83.5207 131.219C83.1877 131.482 82.8689 131.778 82.5644 132.107C82.2694 132.435 82.003 132.764 81.7651 133.093L79.6242 132.854C79.9953 132.262 80.414 131.693 80.8802 131.148C81.3465 130.603 81.846 130.124 82.3789 129.711C82.9117 129.288 83.4636 128.954 84.0345 128.71C84.6054 128.466 85.1859 128.343 85.7758 128.343C86.4133 128.343 86.9557 128.466 87.4029 128.71C87.8501 128.954 88.1927 129.292 88.4305 129.725C88.6684 130.157 88.7874 130.655 88.7874 131.219C88.7874 131.905 88.5875 132.511 88.1879 133.037C87.7978 133.563 87.165 133.976 86.2896 134.277C85.4237 134.578 84.2724 134.728 82.8356 134.728Z" fill="white"/>
<path d="M94.8195 126.92C94.8195 126.61 94.8005 126.3 94.7624 125.99C94.7339 125.68 94.6958 125.388 94.6482 125.116C94.6007 124.834 94.5579 124.59 94.5198 124.383L96.518 124.101C96.556 124.289 96.5941 124.538 96.6322 124.848C96.6702 125.158 96.7035 125.487 96.7321 125.835C96.7606 126.173 96.7749 126.497 96.7749 126.807C96.7749 127.296 96.7321 127.756 96.6464 128.188C96.5608 128.621 96.4324 129.029 96.2611 129.415C96.0898 129.79 95.8757 130.152 95.6188 130.5L95.3619 130.838C95.1145 131.139 94.8243 131.435 94.4912 131.726C94.1677 132.017 93.8109 132.299 93.4208 132.572H94.3485C94.672 132.572 94.9194 132.553 95.0907 132.515C95.262 132.478 95.3762 132.426 95.4333 132.36C95.4999 132.285 95.5332 132.201 95.5332 132.107C95.5332 131.937 95.3857 131.688 95.0907 131.36C94.7957 131.021 94.3866 130.636 93.8632 130.204C93.3399 129.762 92.7262 129.297 92.022 128.809C91.3274 128.311 90.5757 127.813 89.7669 127.315L90.8088 125.807C91.9316 126.492 92.8784 127.122 93.6491 127.695C94.4294 128.268 95.0669 128.79 95.5617 129.26C96.066 129.729 96.4561 130.157 96.7321 130.542C97.008 130.927 97.1983 131.275 97.303 131.585C97.4076 131.886 97.46 132.158 97.46 132.403C97.46 132.675 97.4172 132.938 97.3315 133.192C97.2459 133.436 97.1079 133.657 96.9176 133.854C96.7273 134.042 96.4799 134.193 96.1754 134.305C95.8709 134.418 95.4951 134.474 95.0479 134.474H90.8517V132.586C91.8317 131.891 92.6072 131.233 93.1781 130.613C93.7586 129.993 94.1772 129.382 94.4341 128.78C94.6911 128.179 94.8195 127.559 94.8195 126.92Z" fill="white"/>
<path d="M99.2132 134.474L98.9135 124.158H100.912L101.211 134.474H99.2132Z" fill="white"/>
<path d="M117.39 133.093C117.238 133.018 117.086 132.915 116.933 132.783C116.781 132.642 116.643 132.478 116.519 132.29C116.396 132.102 116.296 131.9 116.22 131.684C116.153 131.458 116.12 131.228 116.12 130.993C116.12 130.476 116.243 130.021 116.491 129.626C116.738 129.222 117.071 128.907 117.49 128.682C117.909 128.447 118.37 128.329 118.874 128.329C119.15 128.329 119.403 128.348 119.631 128.386C119.869 128.414 120.107 128.461 120.345 128.527L120.031 130.359C119.859 130.312 119.693 130.279 119.531 130.26C119.379 130.232 119.241 130.218 119.117 130.218C118.917 130.218 118.741 130.26 118.589 130.345C118.437 130.42 118.318 130.533 118.232 130.683C118.156 130.824 118.118 130.988 118.118 131.176C118.118 131.393 118.166 131.585 118.261 131.754C118.365 131.923 118.518 132.069 118.717 132.191C118.927 132.304 119.184 132.393 119.488 132.459L117.39 133.093ZM116.106 135.278L115.463 133.431C115.958 133.3 116.496 133.15 117.076 132.98C117.656 132.802 118.265 132.6 118.903 132.374C119.55 132.149 120.207 131.905 120.873 131.642L121.615 133.446C121.234 133.596 120.811 133.76 120.345 133.939C119.878 134.108 119.393 134.277 118.889 134.446C118.384 134.615 117.894 134.77 117.419 134.911C116.943 135.052 116.505 135.174 116.106 135.278Z" fill="white"/>
<path d="M126.421 134.545C125.536 134.545 124.851 134.456 124.366 134.277C123.89 134.099 123.557 133.821 123.366 133.446C123.176 133.06 123.067 132.576 123.038 131.994L122.738 124.158H124.737L125.036 131.05C125.055 131.482 125.103 131.806 125.179 132.022C125.255 132.238 125.398 132.384 125.607 132.459C125.826 132.534 126.145 132.572 126.564 132.572C126.925 132.572 127.182 132.666 127.334 132.854C127.496 133.032 127.577 133.258 127.577 133.53C127.577 133.821 127.477 134.066 127.277 134.263C127.077 134.451 126.792 134.545 126.421 134.545Z" fill="white"/>
<path d="M126.298 134.545L126.44 132.572H128.481C128.681 132.572 128.857 132.562 129.009 132.544C129.162 132.515 129.285 132.473 129.38 132.417C129.485 132.36 129.561 132.29 129.609 132.205C129.656 132.121 129.68 132.022 129.68 131.909C129.68 131.797 129.618 131.618 129.495 131.374C129.38 131.12 129.128 130.815 128.738 130.458C128.529 130.27 128.3 130.072 128.053 129.866C127.815 129.65 127.587 129.448 127.368 129.26C127.149 129.062 126.968 128.888 126.826 128.738C126.683 128.588 126.612 128.48 126.612 128.414C126.612 128.273 126.621 128.118 126.64 127.949C126.659 127.78 126.688 127.625 126.726 127.484C126.773 127.343 126.835 127.239 126.911 127.174C127.073 127.023 127.311 126.85 127.625 126.652C127.948 126.445 128.334 126.225 128.781 125.99C129.228 125.745 129.728 125.492 130.28 125.229C130.841 124.956 131.44 124.684 132.078 124.411L132.892 126.131C132.368 126.356 131.873 126.577 131.407 126.793C130.941 127 130.503 127.207 130.094 127.413C129.694 127.611 129.323 127.808 128.981 128.005C128.648 128.193 128.353 128.381 128.096 128.569L128.281 127.526C129.09 128.137 129.732 128.686 130.208 129.175C130.694 129.664 131.055 130.101 131.293 130.486C131.531 130.862 131.688 131.2 131.764 131.501C131.84 131.792 131.878 132.05 131.878 132.276C131.878 132.501 131.821 132.746 131.707 133.009C131.602 133.262 131.407 133.507 131.122 133.742C130.846 133.976 130.456 134.169 129.951 134.319C129.447 134.47 128.8 134.545 128.01 134.545H126.298Z" fill="white"/>
<path d="M135.748 132.572C136.176 132.572 136.504 132.534 136.732 132.459C136.961 132.384 137.118 132.285 137.203 132.163C137.289 132.041 137.332 131.909 137.332 131.768C137.332 131.543 137.265 131.28 137.132 130.979C137.008 130.678 136.851 130.364 136.661 130.035C136.471 129.706 136.271 129.391 136.062 129.09C135.862 128.79 135.681 128.527 135.519 128.301L137.218 127.188C137.627 127.733 137.979 128.273 138.274 128.809C138.569 129.335 138.807 129.823 138.988 130.274C139.178 130.725 139.311 131.111 139.387 131.43C139.463 131.731 139.577 131.966 139.73 132.135C139.891 132.295 140.077 132.407 140.286 132.473C140.496 132.539 140.705 132.572 140.914 132.572C141.276 132.572 141.533 132.666 141.685 132.854C141.847 133.032 141.928 133.258 141.928 133.53C141.928 133.821 141.828 134.066 141.628 134.263C141.438 134.451 141.152 134.545 140.772 134.545C140.353 134.545 139.987 134.489 139.673 134.376C139.359 134.263 139.092 134.084 138.873 133.84C138.654 133.596 138.469 133.286 138.317 132.91L139.187 133.093C139.111 133.356 138.935 133.601 138.659 133.826C138.393 134.042 138.036 134.221 137.589 134.362C137.151 134.493 136.632 134.559 136.033 134.559C135.748 134.559 135.429 134.536 135.077 134.489C134.734 134.442 134.392 134.371 134.049 134.277C133.716 134.183 133.412 134.061 133.136 133.911L133.835 132.121C134.187 132.271 134.525 132.384 134.848 132.459C135.181 132.534 135.481 132.572 135.748 132.572ZM135.833 126.117C135.538 126.117 135.286 126.018 135.077 125.821C134.877 125.623 134.777 125.379 134.777 125.088C134.777 124.796 134.877 124.547 135.077 124.341C135.286 124.134 135.538 124.031 135.833 124.031C136.119 124.031 136.361 124.134 136.561 124.341C136.77 124.547 136.875 124.796 136.875 125.088C136.875 125.379 136.77 125.623 136.561 125.821C136.361 126.018 136.119 126.117 135.833 126.117Z" fill="white"/>
<path d="M140.647 134.545L140.79 132.572H144.901C145.262 132.572 145.519 132.666 145.671 132.854C145.833 133.032 145.914 133.258 145.914 133.53C145.914 133.821 145.814 134.066 145.614 134.263C145.414 134.451 145.129 134.545 144.758 134.545H140.647Z" fill="white"/>
<path d="M144.63 134.545L144.773 132.572H148.884C149.245 132.572 149.502 132.666 149.654 132.854C149.816 133.032 149.897 133.258 149.897 133.53C149.897 133.821 149.797 134.066 149.597 134.263C149.397 134.451 149.112 134.545 148.741 134.545H144.63Z" fill="white"/>
<path d="M148.613 134.545L148.756 132.572H152.867C153.228 132.572 153.485 132.666 153.637 132.854C153.799 133.032 153.88 133.258 153.88 133.53C153.88 133.821 153.78 134.066 153.58 134.263C153.38 134.451 153.095 134.545 152.724 134.545H148.613Z" fill="white"/>
<path d="M152.596 134.545L152.739 132.572H156.85C157.211 132.572 157.468 132.666 157.62 132.854C157.782 133.032 157.863 133.258 157.863 133.53C157.863 133.821 157.763 134.066 157.563 134.263C157.363 134.451 157.078 134.545 156.707 134.545H152.596Z" fill="white"/>
<path d="M156.579 134.545L156.722 132.572H160.833C161.194 132.572 161.451 132.666 161.603 132.854C161.765 133.032 161.846 133.258 161.846 133.53C161.846 133.821 161.746 134.066 161.546 134.263C161.346 134.451 161.061 134.545 160.69 134.545H156.579Z" fill="white"/>
<path d="M160.562 134.545L160.705 132.572H164.816C165.177 132.572 165.434 132.666 165.586 132.854C165.748 133.032 165.829 133.258 165.829 133.53C165.829 133.821 165.729 134.066 165.529 134.263C165.329 134.451 165.044 134.545 164.673 134.545H160.562Z" fill="white"/>
<path d="M164.545 134.545L164.688 132.572H168.799C169.16 132.572 169.417 132.666 169.569 132.854C169.731 133.032 169.812 133.258 169.812 133.53C169.812 133.821 169.712 134.066 169.512 134.263C169.312 134.451 169.027 134.545 168.656 134.545H164.545Z" fill="white"/>
<path d="M168.528 134.545L168.671 132.572H172.782C173.143 132.572 173.4 132.666 173.552 132.854C173.714 133.032 173.795 133.258 173.795 133.53C173.795 133.821 173.695 134.066 173.495 134.263C173.295 134.451 173.01 134.545 172.639 134.545H168.528Z" fill="white"/>
<path d="M172.511 134.545L172.654 132.572H176.765C177.126 132.572 177.383 132.666 177.535 132.854C177.697 133.032 177.778 133.258 177.778 133.53C177.778 133.821 177.678 134.066 177.478 134.263C177.278 134.451 176.993 134.545 176.622 134.545H172.511Z" fill="white"/>
<path d="M176.494 134.545L176.637 132.572H180.748C181.109 132.572 181.366 132.666 181.518 132.854C181.68 133.032 181.761 133.258 181.761 133.53C181.761 133.821 181.661 134.066 181.461 134.263C181.261 134.451 180.976 134.545 180.605 134.545H176.494Z" fill="white"/>
<path d="M180.477 134.545L180.62 132.572H184.731C185.092 132.572 185.349 132.666 185.501 132.854C185.663 133.032 185.744 133.258 185.744 133.53C185.744 133.821 185.644 134.066 185.444 134.263C185.244 134.451 184.959 134.545 184.588 134.545H180.477Z" fill="white"/>
<path d="M184.46 134.545L184.603 132.572H188.714C189.075 132.572 189.332 132.666 189.484 132.854C189.646 133.032 189.727 133.258 189.727 133.53C189.727 133.821 189.627 134.066 189.427 134.263C189.227 134.451 188.942 134.545 188.571 134.545H184.46Z" fill="white"/>
<path d="M188.443 134.545L188.586 132.572H192.697C193.058 132.572 193.315 132.666 193.467 132.854C193.629 133.032 193.71 133.258 193.71 133.53C193.71 133.821 193.61 134.066 193.41 134.263C193.21 134.451 192.925 134.545 192.554 134.545H188.443Z" fill="white"/>
<path d="M192.426 134.545L192.569 132.572H196.68C197.041 132.572 197.298 132.666 197.45 132.854C197.612 133.032 197.693 133.258 197.693 133.53C197.693 133.821 197.593 134.066 197.393 134.263C197.193 134.451 196.908 134.545 196.537 134.545H192.426Z" fill="white"/>
<path d="M196.409 134.545L196.552 132.572C196.999 132.572 197.313 132.529 197.494 132.445C197.684 132.351 197.799 132.182 197.837 131.937C197.875 131.684 197.884 131.317 197.865 130.838L197.637 124.158H199.664L199.906 130.824C199.925 131.294 199.982 131.656 200.077 131.909C200.173 132.163 200.33 132.337 200.548 132.431C200.777 132.525 201.081 132.572 201.462 132.572C201.824 132.572 202.08 132.666 202.233 132.854C202.385 133.032 202.461 133.258 202.461 133.53C202.461 133.821 202.361 134.066 202.161 134.263C201.961 134.451 201.681 134.545 201.319 134.545C200.901 134.545 200.51 134.498 200.149 134.404C199.787 134.31 199.488 134.131 199.25 133.868C199.012 133.605 198.855 133.225 198.779 132.727L199.407 132.741C199.245 133.229 199.036 133.605 198.779 133.868C198.522 134.122 198.198 134.301 197.808 134.404C197.427 134.498 196.961 134.545 196.409 134.545Z" fill="white"/>
<path d="M201.173 134.545L201.316 132.572C201.753 132.572 202.067 132.529 202.258 132.445C202.448 132.351 202.562 132.182 202.6 131.937C202.638 131.684 202.648 131.317 202.629 130.838L202.372 124.158H204.384L204.67 130.979C204.689 131.524 204.665 132.017 204.598 132.459C204.541 132.891 204.394 133.262 204.156 133.572C203.928 133.882 203.571 134.122 203.085 134.291C202.61 134.46 201.972 134.545 201.173 134.545Z" fill="white"/>
<defs>
<linearGradient id="paint0_linear_879_5179" x1="280.931" y1="-104.423" x2="296.512" y2="154.798" gradientUnits="userSpaceOnUse">
<stop offset="0.489583" stop-color="#C4E0EF"/>
<stop offset="0.671875" stop-color="#7D90AA"/>
<stop offset="0.921875" stop-color="#69647C"/>
</linearGradient>
</defs>
</svg>
