<svg width="49" height="49" viewBox="0 0 49 49" fill="none" xmlns="http://www.w3.org/2000/svg">
<path d="M45.081 0H4.18687C1.95234 0 0 1.60781 0 3.81609V44.8011C0 47.0214 1.95234 49 4.18687 49H45.069C47.3156 49 48.9999 47.0083 48.9999 44.8011V3.81609C49.0131 1.60781 47.3156 0 45.081 0ZM15.1889 40.8439H8.16921V19.0181H15.1889V40.8439ZM11.9219 15.6997H11.8715C9.62498 15.6997 8.1703 14.0273 8.1703 11.9339C8.1703 9.80219 9.66327 8.16922 11.9601 8.16922C14.257 8.16922 15.6625 9.79016 15.7128 11.9339C15.7117 14.0273 14.257 15.6997 11.9219 15.6997ZM40.8438 40.8439H33.8242V28.91C33.8242 26.0509 32.8026 24.0975 30.2629 24.0975C28.3226 24.0975 27.1742 25.41 26.6634 26.6886C26.472 27.148 26.4206 27.7736 26.4206 28.4123V40.8439H19.4009V19.0181H26.4206V22.0555C27.4421 20.6008 29.0379 18.5073 32.7512 18.5073C37.3592 18.5073 40.8449 21.5447 40.8449 28.093L40.8438 40.8439Z" fill="white"/>
</svg>
