<svg width="52" height="43" viewBox="0 0 52 43" fill="none" xmlns="http://www.w3.org/2000/svg">
<path d="M52 5.09506C50.0494 5.97112 47.9856 6.5483 45.8738 6.80833C48.0931 5.46501 49.7622 3.3309 50.5678 0.806266C48.4695 2.07453 46.1777 2.9644 43.7905 3.43777C42.7853 2.34881 41.5763 1.48251 40.2371 0.891533C38.8979 0.300554 37.4564 -0.00276288 36.0003 1.8963e-05C30.1047 1.8963e-05 25.3338 4.8599 25.3338 10.8508C25.3296 11.6841 25.4219 12.5149 25.6089 13.3255C21.3814 13.1206 17.2418 12.0059 13.455 10.0526C9.66814 8.09937 6.31744 5.35055 3.61725 1.98204C2.66996 3.63275 2.16898 5.51614 2.16667 7.43541C2.16667 11.1979 4.06575 14.5237 6.93333 16.4721C5.23437 16.4304 3.57022 15.9656 2.08217 15.1172V15.2515C2.08217 20.5145 5.7655 24.8929 10.6405 25.8895C9.72377 26.1421 8.77908 26.2701 7.83033 26.2703C7.15713 26.2715 6.48545 26.2039 5.82508 26.0687C7.18033 30.3799 11.1248 33.5153 15.7972 33.6049C12.0005 36.6293 7.33917 38.264 2.54583 38.252C1.695 38.2507 0.844963 38.1983 0 38.0952C4.87628 41.3137 10.5446 43.0162 16.3302 42.9999C35.9775 42.9999 46.7112 26.4606 46.7112 12.1161C46.7112 11.6458 46.6992 11.1755 46.6776 10.7164C48.7609 9.18459 50.5633 7.28101 52 5.09506Z" fill="white"/>
</svg>
