<svg width="57" height="43" viewBox="0 0 57 43" fill="none" xmlns="http://www.w3.org/2000/svg">
<path d="M56.6338 9.49445C56.6338 4.45553 52.9483 0.401994 48.3944 0.401994C42.2261 0.111976 35.9352 0 29.5064 0H27.5022C21.0889 0 14.7869 0.111976 8.61856 0.403114C4.0758 0.403114 0.390375 4.47904 0.390375 9.51797C0.112019 13.5032 -0.00600345 17.4895 0.000677081 21.4759C-0.0104571 25.4622 0.115731 29.4523 0.37924 33.4461C0.37924 38.4851 4.06467 42.5722 8.60743 42.5722C15.0875 42.8745 21.7347 43.0089 28.4931 42.9977C35.2627 43.0201 41.8913 42.8783 48.3788 42.5722C52.9327 42.5722 56.6182 38.4851 56.6182 33.4461C56.8854 29.4486 57.0079 25.4623 56.9967 21.4647C57.022 17.4784 56.901 13.4883 56.6338 9.49445ZM23.0485 32.4608V10.4574L39.1931 21.4535L23.0485 32.4608Z" fill="white"/>
</svg>
